<?xml version="1.0" encoding="UTF-8"?>
<svg xmlns="http://www.w3.org/2000/svg" xmlns:xlink="http://www.w3.org/1999/xlink" width="351.496" height="294.803" viewBox="0 0 351.496 294.803">
<defs>
<g>
<g id="glyph-0-0">
<path d="M 7.203125 -2.734375 L 6.734375 -2.734375 C 6.515625 -1.359375 6.234375 -0.46875 4.390625 -0.46875 L 2.875 -0.46875 L 2.875 -3.28125 L 3.421875 -3.28125 C 4.375 -3.28125 4.484375 -2.84375 4.484375 -2.109375 L 4.953125 -2.109375 L 4.953125 -4.90625 L 4.484375 -4.90625 C 4.484375 -4.171875 4.390625 -3.75 3.421875 -3.75 L 2.875 -3.75 L 2.875 -6.296875 L 4.390625 -6.296875 C 5.984375 -6.296875 6.25 -5.578125 6.40625 -4.375 L 6.875 -4.375 L 6.5625 -6.765625 L 0.390625 -6.765625 L 0.390625 -6.296875 L 1.46875 -6.296875 L 1.46875 -0.46875 L 0.390625 -0.46875 L 0.390625 0 L 6.734375 0 Z M 7.203125 -2.734375 "/>
</g>
<g id="glyph-0-1">
<path d="M 5.984375 0 L 5.984375 -0.46875 C 5.359375 -0.46875 5.296875 -0.46875 5.296875 -0.859375 L 5.296875 -6.90625 L 3.53125 -6.828125 L 3.53125 -6.359375 C 4.15625 -6.359375 4.21875 -6.359375 4.21875 -5.96875 L 4.21875 -4.03125 C 3.71875 -4.421875 3.203125 -4.484375 2.875 -4.484375 C 1.421875 -4.484375 0.375 -3.609375 0.375 -2.203125 C 0.375 -0.890625 1.296875 0.0625 2.765625 0.0625 C 3.375 0.0625 3.859375 -0.171875 4.15625 -0.421875 L 4.15625 0.0625 Z M 4.15625 -1.03125 C 4.03125 -0.84375 3.625 -0.296875 2.859375 -0.296875 C 1.65625 -0.296875 1.65625 -1.5 1.65625 -2.203125 C 1.65625 -2.671875 1.65625 -3.21875 1.90625 -3.609375 C 2.203125 -4.015625 2.671875 -4.125 2.96875 -4.125 C 3.546875 -4.125 3.9375 -3.796875 4.15625 -3.515625 Z M 4.15625 -1.03125 "/>
</g>
<g id="glyph-0-2">
<path d="M 2.84375 0 L 2.84375 -0.46875 L 2.234375 -0.46875 L 2.234375 -4.484375 L 0.5 -4.40625 L 0.5 -3.9375 C 1.078125 -3.9375 1.15625 -3.9375 1.15625 -3.546875 L 1.15625 -0.46875 L 0.46875 -0.46875 L 0.46875 0 L 1.6875 -0.03125 Z M 2.375 -6.046875 C 2.375 -6.46875 2.015625 -6.8125 1.59375 -6.8125 C 1.171875 -6.8125 0.8125 -6.46875 0.8125 -6.046875 C 0.8125 -5.609375 1.171875 -5.265625 1.59375 -5.265625 C 2.015625 -5.265625 2.375 -5.609375 2.375 -6.046875 Z M 2.375 -6.046875 "/>
</g>
<g id="glyph-0-3">
<path d="M 4.34375 -6.09375 C 4.34375 -6.515625 3.984375 -6.96875 3.21875 -6.96875 C 2.234375 -6.96875 1.171875 -6.546875 1.171875 -5.421875 L 1.171875 -4.421875 L 0.421875 -4.421875 L 0.421875 -3.953125 L 1.171875 -3.953125 L 1.171875 -0.46875 L 0.484375 -0.46875 L 0.484375 0 L 1.734375 -0.03125 C 2.109375 -0.03125 2.75 -0.03125 3.109375 0 L 3.109375 -0.46875 L 2.234375 -0.46875 L 2.234375 -3.953125 L 3.390625 -3.953125 L 3.390625 -4.421875 L 2.1875 -4.421875 L 2.1875 -5.421875 C 2.1875 -6.515625 2.9375 -6.609375 3.1875 -6.609375 C 3.234375 -6.609375 3.28125 -6.609375 3.359375 -6.59375 C 3.203125 -6.484375 3.125 -6.296875 3.125 -6.09375 C 3.125 -5.671875 3.46875 -5.484375 3.734375 -5.484375 C 4.03125 -5.484375 4.34375 -5.6875 4.34375 -6.09375 Z M 4.34375 -6.09375 "/>
</g>
<g id="glyph-0-4">
<path d="M 2.84375 0 L 2.84375 -0.46875 L 2.234375 -0.46875 L 2.234375 -4.484375 L 0.5 -4.40625 L 0.5 -3.9375 C 1.078125 -3.9375 1.15625 -3.9375 1.15625 -3.546875 L 1.15625 -0.46875 L 0.46875 -0.46875 L 0.46875 0 L 1.6875 -0.03125 Z M 3.046875 -6.390625 C 3.046875 -6.703125 2.765625 -7 2.453125 -7 C 2.21875 -7 2.09375 -6.875 1.984375 -6.75 L 0.859375 -5.4375 L 1.171875 -5.0625 L 2.671875 -5.875 C 2.828125 -5.96875 3.046875 -6.078125 3.046875 -6.390625 Z M 3.046875 -6.390625 "/>
</g>
<g id="glyph-0-5">
<path d="M 4.75 -1.171875 C 4.75 -1.296875 4.625 -1.296875 4.515625 -1.296875 C 4.34375 -1.296875 4.328125 -1.28125 4.28125 -1.15625 C 4.015625 -0.53125 3.546875 -0.34375 3.03125 -0.34375 C 1.65625 -0.34375 1.65625 -1.796875 1.65625 -2.265625 C 1.65625 -2.8125 1.65625 -4.109375 2.9375 -4.109375 C 3.28125 -4.109375 3.453125 -4.078125 3.578125 -4.046875 C 3.40625 -3.890625 3.390625 -3.6875 3.390625 -3.59375 C 3.390625 -3.15625 3.734375 -2.96875 4 -2.96875 C 4.3125 -2.96875 4.625 -3.171875 4.625 -3.59375 C 4.625 -4.453125 3.46875 -4.515625 2.890625 -4.515625 C 1.109375 -4.515625 0.375 -3.359375 0.375 -2.203125 C 0.375 -0.890625 1.3125 0.0625 2.84375 0.0625 C 4.453125 0.0625 4.75 -1.09375 4.75 -1.171875 Z M 4.75 -1.171875 "/>
</g>
<g id="glyph-0-6">
<path d="M 5.390625 -2.171875 C 5.390625 -3.5 4.484375 -4.515625 2.859375 -4.515625 C 1.21875 -4.515625 0.3125 -3.5 0.3125 -2.171875 C 0.3125 -0.9375 1.1875 0.0625 2.859375 0.0625 C 4.53125 0.0625 5.390625 -0.953125 5.390625 -2.171875 Z M 4.125 -2.28125 C 4.125 -1.40625 4.125 -0.34375 2.859375 -0.34375 C 1.59375 -0.34375 1.59375 -1.40625 1.59375 -2.28125 C 1.59375 -2.734375 1.59375 -3.234375 1.765625 -3.578125 C 1.953125 -3.9375 2.375 -4.15625 2.859375 -4.15625 C 3.28125 -4.15625 3.6875 -3.984375 3.90625 -3.640625 C 4.125 -3.296875 4.125 -2.75 4.125 -2.28125 Z M 4.125 -2.28125 "/>
</g>
<g id="glyph-1-0">
<path d="M 6.5 -4.390625 L 6.5 -4.78125 C 6.390625 -4.78125 5.90625 -4.75 5.671875 -4.75 L 4.671875 -4.78125 L 4.671875 -4.390625 C 4.953125 -4.390625 5.078125 -4.390625 5.265625 -4.34375 L 3.65625 -1.015625 L 2.015625 -4.390625 L 2.640625 -4.390625 L 2.640625 -4.78125 C 2.265625 -4.75 1.734375 -4.75 1.359375 -4.75 L 0.25 -4.78125 L 0.25 -4.390625 L 0.90625 -4.390625 L 2.96875 -0.125 C 3.0625 0.078125 3.15625 0.078125 3.3125 0.078125 L 3.421875 0.078125 C 3.65625 0.078125 3.6875 0.03125 3.765625 -0.125 L 5.78125 -4.265625 C 5.8125 -4.359375 5.84375 -4.390625 6.3125 -4.390625 Z M 6.5 -4.390625 "/>
</g>
<g id="glyph-1-1">
<path d="M 3.84375 -0.796875 C 3.84375 -0.953125 3.6875 -0.953125 3.609375 -0.953125 C 3.484375 -0.953125 3.453125 -0.9375 3.40625 -0.828125 C 3.15625 -0.3125 2.515625 -0.3125 2.390625 -0.3125 C 1.296875 -0.3125 1.265625 -1.125 1.25 -1.453125 L 3.59375 -1.453125 C 3.75 -1.453125 3.84375 -1.453125 3.84375 -1.65625 C 3.84375 -1.859375 3.796875 -2.390625 3.453125 -2.71875 C 3.078125 -3.09375 2.5625 -3.15625 2.1875 -3.15625 C 0.890625 -3.15625 0.28125 -2.390625 0.28125 -1.5625 C 0.28125 -0.734375 0.921875 0.046875 2.296875 0.046875 C 2.546875 0.046875 2.953125 0.015625 3.296875 -0.171875 C 3.71875 -0.390625 3.84375 -0.71875 3.84375 -0.796875 Z M 3.15625 -1.734375 L 1.25 -1.734375 C 1.25 -2.015625 1.296875 -2.84375 2.1875 -2.84375 C 3.09375 -2.84375 3.140625 -2.046875 3.15625 -1.734375 Z M 3.15625 -1.734375 "/>
</g>
<g id="glyph-1-2">
<path d="M 2.1875 0 L 2.1875 -0.390625 L 1.765625 -0.390625 L 1.765625 -3.140625 L 0.484375 -3.078125 L 0.484375 -2.6875 C 0.890625 -2.6875 0.9375 -2.6875 0.9375 -2.421875 L 0.9375 -0.390625 L 0.46875 -0.390625 L 0.46875 0 C 0.46875 0 1.03125 -0.03125 1.34375 -0.03125 C 1.625 -0.03125 1.90625 -0.015625 2.1875 0 Z M 2.40625 -4.421875 C 2.40625 -4.609375 2.234375 -4.90625 1.9375 -4.90625 C 1.78125 -4.90625 1.6875 -4.8125 1.65625 -4.78125 L 0.703125 -3.859375 L 0.953125 -3.484375 L 2.109375 -4.015625 C 2.203125 -4.0625 2.40625 -4.171875 2.40625 -4.421875 Z M 2.40625 -4.421875 "/>
</g>
<g id="glyph-1-3">
<path d="M 3.734375 -0.796875 C 3.734375 -0.921875 3.609375 -0.921875 3.5 -0.921875 C 3.34375 -0.921875 3.328125 -0.90625 3.28125 -0.8125 C 3.171875 -0.578125 2.953125 -0.3125 2.421875 -0.3125 C 1.296875 -0.3125 1.296875 -1.296875 1.296875 -1.578125 C 1.296875 -2.09375 1.375 -2.796875 2.3125 -2.796875 C 2.359375 -2.796875 2.75 -2.796875 2.75 -2.765625 L 2.734375 -2.734375 C 2.71875 -2.71875 2.65625 -2.609375 2.65625 -2.453125 C 2.65625 -2.171875 2.875 -1.984375 3.140625 -1.984375 C 3.421875 -1.984375 3.625 -2.171875 3.625 -2.46875 C 3.625 -3.140625 2.703125 -3.15625 2.296875 -3.15625 C 0.734375 -3.15625 0.328125 -2.1875 0.328125 -1.546875 C 0.328125 -0.734375 0.9375 0.046875 2.25 0.046875 C 2.59375 0.046875 2.953125 -0.015625 3.21875 -0.171875 C 3.625 -0.40625 3.734375 -0.75 3.734375 -0.796875 Z M 3.734375 -0.796875 "/>
</g>
<g id="glyph-1-4">
<path d="M 4.734375 0 L 4.734375 -0.390625 C 4.328125 -0.390625 4.265625 -0.390625 4.265625 -0.65625 L 4.265625 -3.140625 L 2.90625 -3.078125 L 2.90625 -2.6875 C 3.328125 -2.6875 3.375 -2.6875 3.375 -2.421875 L 3.375 -1.125 C 3.375 -0.546875 2.9375 -0.28125 2.40625 -0.28125 C 1.8125 -0.28125 1.796875 -0.4375 1.796875 -0.765625 L 1.796875 -3.140625 L 0.453125 -3.078125 L 0.453125 -2.6875 C 0.859375 -2.6875 0.90625 -2.6875 0.90625 -2.421875 L 0.90625 -0.84375 C 0.90625 -0.03125 1.6875 0.046875 2.28125 0.046875 C 2.515625 0.046875 3.03125 0.046875 3.421875 -0.453125 L 3.421875 0.046875 Z M 4.734375 0 "/>
</g>
<g id="glyph-1-5">
<path d="M 2.234375 0 L 2.234375 -0.390625 L 1.765625 -0.390625 L 1.765625 -4.84375 L 0.46875 -4.78125 L 0.46875 -4.390625 C 0.875 -4.390625 0.9375 -4.390625 0.9375 -4.125 L 0.9375 -0.390625 L 0.46875 -0.390625 L 0.46875 0 C 0.484375 0 1.03125 -0.03125 1.359375 -0.03125 C 1.6875 -0.03125 2.21875 0 2.234375 0 Z M 2.234375 0 "/>
</g>
<g id="glyph-1-6">
<path d="M 4.21875 -1.515625 C 4.21875 -2.34375 3.609375 -3.15625 2.25 -3.15625 C 0.875 -3.15625 0.28125 -2.34375 0.28125 -1.515625 C 0.28125 -0.703125 0.90625 0.046875 2.25 0.046875 C 3.609375 0.046875 4.21875 -0.703125 4.21875 -1.515625 Z M 3.25 -1.609375 C 3.25 -1 3.25 -0.3125 2.25 -0.3125 C 1.25 -0.3125 1.25 -1 1.25 -1.609375 C 1.25 -2.15625 1.25 -2.84375 2.25 -2.84375 C 3.25 -2.84375 3.25 -2.15625 3.25 -1.609375 Z M 3.25 -1.609375 "/>
</g>
<g id="glyph-1-7">
<path d="M 6.390625 0 L 6.390625 -0.390625 L 5.6875 -0.390625 L 3.75 -4.703125 C 3.671875 -4.90625 3.578125 -4.90625 3.375 -4.90625 C 3.15625 -4.90625 3.078125 -4.90625 2.984375 -4.703125 L 1.109375 -0.515625 C 1.0625 -0.4375 1.0625 -0.421875 0.890625 -0.40625 C 0.75 -0.390625 0.6875 -0.390625 0.5625 -0.390625 L 0.359375 -0.390625 L 0.359375 0 C 0.390625 0 0.90625 -0.03125 1.21875 -0.03125 L 2.21875 0 L 2.21875 -0.390625 C 2.1875 -0.390625 1.609375 -0.390625 1.609375 -0.453125 L 1.65625 -0.515625 L 2.03125 -1.359375 L 4.15625 -1.359375 L 4.59375 -0.390625 L 3.96875 -0.390625 L 3.96875 0 C 4.328125 -0.03125 4.859375 -0.03125 5.234375 -0.03125 Z M 3.984375 -1.75 L 2.203125 -1.75 L 3.09375 -3.734375 Z M 3.984375 -1.75 "/>
</g>
<g id="glyph-1-8">
<path d="M 5.84375 -1.296875 C 5.84375 -1.828125 5.40625 -2.375 4.328125 -2.5 C 5.1875 -2.65625 5.59375 -3.109375 5.59375 -3.5625 C 5.59375 -4.25 4.859375 -4.78125 3.671875 -4.78125 L 0.40625 -4.78125 L 0.40625 -4.390625 L 1.15625 -4.390625 L 1.15625 -0.390625 L 0.40625 -0.390625 L 0.40625 0 L 3.921875 0 C 5.15625 0 5.84375 -0.609375 5.84375 -1.296875 Z M 4.546875 -3.5625 C 4.546875 -3 4.078125 -2.640625 3.390625 -2.640625 L 2.125 -2.640625 L 2.125 -4.390625 L 3.59375 -4.390625 C 4.265625 -4.390625 4.546875 -4 4.546875 -3.5625 Z M 4.75 -1.3125 C 4.75 -0.84375 4.421875 -0.390625 3.609375 -0.390625 L 2.125 -0.390625 L 2.125 -2.328125 L 3.671875 -2.328125 C 4.65625 -2.328125 4.75 -1.5625 4.75 -1.3125 Z M 4.75 -1.3125 "/>
</g>
<g id="glyph-1-9">
<path d="M 5.59375 -1.875 L 5.15625 -1.875 C 4.96875 -0.875 4.671875 -0.390625 3.46875 -0.390625 L 2.1875 -0.390625 L 2.1875 -2.265625 L 2.65625 -2.265625 C 3.25 -2.265625 3.453125 -2.09375 3.453125 -1.484375 L 3.890625 -1.484375 L 3.890625 -3.421875 L 3.453125 -3.421875 C 3.453125 -2.8125 3.25 -2.640625 2.65625 -2.640625 L 2.1875 -2.640625 L 2.1875 -4.34375 L 3.40625 -4.34375 C 4.375 -4.34375 4.78125 -4.0625 4.90625 -3.0625 L 5.359375 -3.0625 L 5.109375 -4.734375 L 0.390625 -4.734375 L 0.390625 -4.34375 L 1.140625 -4.34375 L 1.140625 -0.390625 L 0.390625 -0.390625 L 0.390625 0 L 5.234375 0 Z M 5.59375 -1.875 "/>
</g>
<g id="glyph-1-10">
<path d="M 4.609375 0 L 4.609375 -0.390625 C 4.203125 -0.390625 4.140625 -0.390625 4.140625 -0.65625 L 4.140625 -4.84375 L 2.84375 -4.78125 L 2.84375 -4.390625 C 3.25 -4.390625 3.3125 -4.390625 3.3125 -4.125 L 3.3125 -2.84375 C 2.875 -3.109375 2.484375 -3.140625 2.265625 -3.140625 C 1.015625 -3.140625 0.328125 -2.421875 0.328125 -1.546875 C 0.328125 -0.671875 0.96875 0.046875 2.171875 0.046875 C 2.609375 0.046875 2.984375 -0.09375 3.265625 -0.296875 L 3.265625 0.046875 Z M 3.265625 -0.8125 C 3.09375 -0.578125 2.765625 -0.28125 2.25 -0.28125 C 1.296875 -0.28125 1.296875 -1.109375 1.296875 -1.53125 C 1.296875 -1.953125 1.296875 -2.8125 2.34375 -2.8125 C 2.921875 -2.8125 3.234375 -2.421875 3.265625 -2.390625 Z M 3.265625 -0.8125 "/>
</g>
<g id="glyph-1-11">
<path d="M 4.34375 -2.703125 C 4.34375 -2.921875 4.171875 -3.171875 3.828125 -3.171875 C 3.546875 -3.171875 3.21875 -3.0625 3.015625 -2.90625 C 2.609375 -3.140625 2.171875 -3.140625 2 -3.140625 C 0.859375 -3.140625 0.484375 -2.546875 0.484375 -2.09375 C 0.484375 -1.703125 0.71875 -1.484375 0.84375 -1.375 C 0.6875 -1.171875 0.625 -0.96875 0.625 -0.765625 C 0.625 -0.5 0.71875 -0.265625 0.90625 -0.09375 C 0.65625 -0.03125 0.28125 0.140625 0.28125 0.5 C 0.28125 0.921875 0.765625 1.40625 2.25 1.40625 C 3.53125 1.40625 4.21875 1.03125 4.21875 0.484375 C 4.21875 0.34375 4.203125 -0.15625 3.625 -0.4375 C 3.203125 -0.625 2.75 -0.625 2.03125 -0.625 L 1.65625 -0.625 C 1.421875 -0.625 1.3125 -0.625 1.203125 -0.71875 C 1.125 -0.78125 1.03125 -0.875 1.03125 -1.046875 C 1.03125 -1.09375 1.03125 -1.15625 1.09375 -1.21875 C 1.453125 -1.046875 1.859375 -1.046875 2 -1.046875 C 3.171875 -1.046875 3.53125 -1.671875 3.53125 -2.09375 C 3.53125 -2.453125 3.3125 -2.6875 3.25 -2.734375 C 3.359375 -2.78125 3.515625 -2.828125 3.671875 -2.84375 C 3.65625 -2.8125 3.640625 -2.75 3.640625 -2.703125 C 3.640625 -2.453125 3.859375 -2.359375 4 -2.359375 C 4.15625 -2.359375 4.34375 -2.46875 4.34375 -2.703125 Z M 2.703125 -2.09375 C 2.703125 -1.8125 2.703125 -1.375 2 -1.375 C 1.3125 -1.375 1.3125 -1.8125 1.3125 -2.09375 C 1.3125 -2.375 1.3125 -2.8125 2 -2.8125 C 2.703125 -2.8125 2.703125 -2.375 2.703125 -2.09375 Z M 3.546875 0.5 C 3.546875 0.734375 3.25 1.078125 2.25 1.078125 C 1.296875 1.078125 0.96875 0.75 0.96875 0.5 C 0.96875 0.125 1.4375 0.125 1.53125 0.125 L 2.453125 0.125 C 2.640625 0.125 3.546875 0.125 3.546875 0.5 Z M 3.546875 0.5 "/>
</g>
<g id="glyph-1-12">
<path d="M 6.625 -0.6875 C 6.625 -0.859375 6.5 -0.859375 6.40625 -0.859375 C 6.3125 -0.859375 6.203125 -0.859375 6.1875 -0.703125 C 6.15625 -0.328125 5.90625 -0.234375 5.75 -0.234375 C 5.296875 -0.234375 5.234375 -0.6875 5.171875 -1.234375 C 5.09375 -1.703125 5.046875 -2.125 4.390625 -2.359375 C 4.78125 -2.484375 5.546875 -2.796875 5.546875 -3.46875 C 5.546875 -4.21875 4.640625 -4.78125 3.25 -4.78125 L 0.390625 -4.78125 L 0.390625 -4.390625 L 1.140625 -4.390625 L 1.140625 -0.390625 L 0.390625 -0.390625 L 0.390625 0 C 0.5625 -0.015625 1.578125 -0.03125 1.640625 -0.03125 L 2.890625 0 L 2.890625 -0.390625 L 2.140625 -0.390625 L 2.140625 -2.234375 L 3.109375 -2.234375 C 3.25 -2.234375 3.546875 -2.234375 3.828125 -2 C 4.078125 -1.8125 4.078125 -1.640625 4.078125 -1.140625 C 4.078125 -0.578125 4.078125 0.078125 5.6875 0.078125 C 6.515625 0.078125 6.625 -0.53125 6.625 -0.6875 Z M 4.40625 -3.46875 C 4.40625 -3.03125 4.3125 -2.546875 3.15625 -2.546875 L 2.140625 -2.546875 L 2.140625 -4.390625 L 3.1875 -4.390625 C 4.3125 -4.390625 4.40625 -3.921875 4.40625 -3.46875 Z M 4.40625 -3.46875 "/>
</g>
<g id="glyph-1-13">
<path d="M 4.46875 -1.421875 C 4.46875 -2.21875 3.8125 -2.75 3.140625 -2.890625 L 2 -3.109375 C 1.484375 -3.203125 1.234375 -3.5 1.234375 -3.796875 C 1.234375 -4.09375 1.4375 -4.515625 2.265625 -4.515625 C 2.859375 -4.515625 3.609375 -4.296875 3.765625 -3.390625 C 3.8125 -3.21875 3.8125 -3.1875 4 -3.1875 C 4.203125 -3.1875 4.21875 -3.21875 4.21875 -3.421875 L 4.21875 -4.640625 C 4.21875 -4.78125 4.21875 -4.859375 4.0625 -4.859375 C 3.984375 -4.859375 3.96875 -4.859375 3.875 -4.78125 L 3.640625 -4.546875 C 3.59375 -4.5 3.578125 -4.5 3.578125 -4.5 C 3.578125 -4.5 3.5625 -4.5 3.515625 -4.53125 C 3.125 -4.796875 2.65625 -4.859375 2.265625 -4.859375 C 1 -4.859375 0.515625 -4.109375 0.515625 -3.46875 C 0.515625 -3.09375 0.6875 -2.796875 0.890625 -2.578125 C 1.265625 -2.203125 1.609375 -2.125 2.46875 -1.96875 L 3.078125 -1.859375 C 3.421875 -1.765625 3.765625 -1.5 3.765625 -1.09375 C 3.765625 -1.015625 3.765625 -0.3125 2.703125 -0.3125 C 2.484375 -0.3125 1.953125 -0.328125 1.53125 -0.53125 C 1.046875 -0.78125 0.96875 -1.171875 0.96875 -1.40625 C 0.953125 -1.546875 0.953125 -1.59375 0.75 -1.59375 C 0.546875 -1.59375 0.515625 -1.5625 0.515625 -1.359375 L 0.515625 -0.140625 C 0.515625 0 0.515625 0.078125 0.6875 0.078125 C 0.765625 0.078125 0.78125 0.078125 0.828125 0.03125 C 0.90625 -0.03125 1.078125 -0.21875 1.15625 -0.28125 C 1.640625 0.015625 2.234375 0.078125 2.71875 0.078125 C 4.03125 0.078125 4.46875 -0.75 4.46875 -1.421875 Z M 4.46875 -1.421875 "/>
</g>
<g id="glyph-1-14">
<path d="M 6.453125 -4.390625 L 6.453125 -4.78125 L 5.46875 -4.75 L 4.46875 -4.78125 L 4.46875 -4.390625 L 4.703125 -4.390625 C 4.8125 -4.390625 4.953125 -4.390625 5.046875 -4.375 C 5.21875 -4.359375 5.21875 -4.359375 5.21875 -4.21875 L 5.21875 -1.625 C 5.21875 -0.59375 4.375 -0.3125 3.578125 -0.3125 C 2.28125 -0.3125 2.1875 -1.09375 2.1875 -1.59375 L 2.1875 -4.390625 L 2.9375 -4.390625 L 2.9375 -4.78125 C 2.78125 -4.765625 1.78125 -4.75 1.671875 -4.75 C 1.515625 -4.75 0.546875 -4.765625 0.390625 -4.78125 L 0.390625 -4.390625 L 1.140625 -4.390625 L 1.140625 -1.609375 C 1.140625 -0.734375 1.890625 0.078125 3.546875 0.078125 C 5.109375 0.078125 5.71875 -0.796875 5.71875 -1.609375 L 5.71875 -4.21875 C 5.71875 -4.328125 5.71875 -4.328125 5.734375 -4.34375 C 5.796875 -4.390625 6.140625 -4.390625 6.234375 -4.390625 Z M 6.453125 -4.390625 "/>
</g>
<g id="glyph-1-15">
<path d="M 5.890625 -3.03125 L 5.734375 -4.6875 L 0.515625 -4.6875 L 0.34375 -3.03125 L 0.78125 -3.03125 C 0.859375 -3.78125 0.96875 -4.296875 1.96875 -4.296875 L 2.59375 -4.296875 L 2.59375 -0.390625 L 1.546875 -0.390625 L 1.546875 0 C 1.71875 -0.015625 2.109375 -0.015625 2.296875 -0.015625 L 3.125 -0.03125 L 3.984375 -0.015625 C 4.1875 -0.015625 4.515625 -0.015625 4.703125 0 L 4.703125 -0.390625 L 3.65625 -0.390625 L 3.65625 -4.296875 L 4.265625 -4.296875 C 5.28125 -4.296875 5.375 -3.796875 5.453125 -3.03125 Z M 5.890625 -3.03125 "/>
</g>
<g id="glyph-1-16">
<path d="M 3.453125 -2.515625 C 3.453125 -2.90625 3.0625 -3.140625 2.625 -3.140625 C 2.125 -3.140625 1.796875 -2.796875 1.609375 -2.375 L 1.59375 -2.375 L 1.59375 -3.140625 L 0.390625 -3.078125 L 0.390625 -2.6875 C 0.796875 -2.6875 0.84375 -2.6875 0.84375 -2.421875 L 0.84375 -0.390625 L 0.390625 -0.390625 L 0.390625 0 C 0.40625 0 0.953125 -0.03125 1.28125 -0.03125 L 2.265625 0 L 2.265625 -0.390625 L 1.6875 -0.390625 L 1.6875 -1.46875 C 1.6875 -2.09375 1.96875 -2.78125 2.59375 -2.8125 C 2.59375 -2.8125 2.5 -2.6875 2.5 -2.515625 C 2.5 -2.25 2.703125 -2.046875 2.96875 -2.046875 C 3.25 -2.046875 3.453125 -2.25 3.453125 -2.515625 Z M 3.453125 -2.515625 "/>
</g>
<g id="glyph-1-17">
<path d="M 2.984375 1.609375 C 2.984375 1.546875 2.96875 1.53125 2.859375 1.4375 C 2.140625 0.828125 1.625 -0.265625 1.625 -1.734375 C 1.625 -2.703125 1.859375 -4.09375 2.921875 -4.984375 C 2.953125 -5.015625 2.984375 -5.03125 2.984375 -5.09375 C 2.984375 -5.21875 2.859375 -5.21875 2.828125 -5.21875 C 2.6875 -5.21875 2.28125 -4.90625 2.140625 -4.765625 C 1.46875 -4.09375 0.84375 -3.15625 0.84375 -1.75 C 0.84375 -0.578125 1.28125 0.4375 2.140625 1.28125 C 2.28125 1.421875 2.671875 1.734375 2.828125 1.734375 C 2.859375 1.734375 2.984375 1.734375 2.984375 1.609375 Z M 2.984375 1.609375 "/>
</g>
<g id="glyph-1-18">
<path d="M 4.03125 -1.40625 C 4.03125 -2.140625 3.484375 -2.859375 2.28125 -2.859375 C 2.015625 -2.859375 1.65625 -2.828125 1.3125 -2.625 L 1.3125 -3.453125 C 1.5625 -3.421875 1.75 -3.421875 1.828125 -3.421875 C 2 -3.421875 2.484375 -3.421875 3 -3.734375 C 3.203125 -3.84375 3.671875 -4.203125 3.671875 -4.40625 C 3.671875 -4.4375 3.671875 -4.578125 3.546875 -4.578125 C 3.546875 -4.578125 3.53125 -4.578125 3.4375 -4.546875 C 2.984375 -4.390625 2.578125 -4.34375 2.25 -4.34375 C 1.96875 -4.34375 1.53125 -4.390625 1.078125 -4.53125 C 0.96875 -4.578125 0.953125 -4.578125 0.953125 -4.578125 C 0.828125 -4.578125 0.828125 -4.453125 0.828125 -4.359375 L 0.828125 -2.296875 C 0.828125 -2.15625 0.828125 -2.0625 1.03125 -2.0625 C 1.09375 -2.0625 1.140625 -2.0625 1.203125 -2.109375 C 1.328125 -2.265625 1.59375 -2.53125 2.25 -2.53125 C 2.96875 -2.53125 2.96875 -1.9375 2.96875 -1.421875 C 2.96875 -0.96875 2.96875 -0.265625 2.015625 -0.265625 C 1.6875 -0.265625 1.328125 -0.390625 1.125 -0.609375 C 1.46875 -0.703125 1.5 -1 1.5 -1.09375 C 1.5 -1.4375 1.234375 -1.609375 0.984375 -1.609375 C 0.734375 -1.609375 0.46875 -1.453125 0.46875 -1.09375 C 0.46875 -0.453125 1.09375 0.078125 2.046875 0.078125 C 3.359375 0.078125 4.03125 -0.609375 4.03125 -1.40625 Z M 4.03125 -1.40625 "/>
</g>
<g id="glyph-1-19">
<path d="M 6.578125 -1.53125 L 6.578125 -1.921875 L 5.40625 -1.890625 L 4.546875 -1.890625 C 4.34375 -1.890625 4 -1.90625 3.796875 -1.921875 L 3.796875 -1.53125 L 4.90625 -1.53125 L 4.90625 -0.875 C 4.90625 -0.703125 4.90625 -0.3125 3.875 -0.3125 C 3.546875 -0.3125 2.78125 -0.328125 2.234375 -0.796875 C 1.90625 -1.078125 1.65625 -1.515625 1.65625 -2.390625 C 1.65625 -3.09375 1.8125 -3.609375 2.1875 -3.953125 C 2.640625 -4.390625 3.34375 -4.46875 3.765625 -4.46875 C 4.546875 -4.46875 5.296875 -4 5.46875 -3.09375 C 5.484375 -2.953125 5.5 -2.9375 5.6875 -2.9375 L 5.75 -2.9375 C 5.9375 -2.9375 5.96875 -2.953125 5.96875 -3.15625 L 5.96875 -4.640625 C 5.96875 -4.78125 5.96875 -4.859375 5.8125 -4.859375 C 5.71875 -4.859375 5.703125 -4.859375 5.640625 -4.796875 L 5.171875 -4.390625 C 4.46875 -4.859375 3.828125 -4.859375 3.609375 -4.859375 C 1.59375 -4.859375 0.515625 -3.734375 0.515625 -2.390625 C 0.515625 -1.265625 1.328125 0.078125 3.671875 0.078125 C 4.046875 0.078125 4.84375 0.0625 5.203125 -0.296875 C 5.359375 -0.1875 5.78125 0 5.84375 0 C 5.96875 0 5.96875 -0.125 5.96875 -0.21875 L 5.96875 -1.53125 Z M 6.578125 -1.53125 "/>
</g>
<g id="glyph-1-20">
<path d="M 6.578125 -4.390625 L 6.578125 -4.78125 L 5.59375 -4.75 L 4.59375 -4.78125 L 4.59375 -4.390625 L 4.828125 -4.390625 C 4.9375 -4.390625 5.078125 -4.390625 5.171875 -4.375 C 5.34375 -4.359375 5.34375 -4.359375 5.34375 -4.21875 L 5.34375 -1.421875 L 2.28125 -4.6875 C 2.1875 -4.78125 2.1875 -4.78125 2.03125 -4.78125 L 0.390625 -4.78125 L 0.390625 -4.390625 L 1.140625 -4.390625 L 1.140625 -0.5625 C 1.140625 -0.453125 1.140625 -0.453125 1.125 -0.4375 C 1.0625 -0.390625 0.703125 -0.390625 0.625 -0.390625 L 0.390625 -0.390625 L 0.390625 0 L 1.390625 -0.03125 L 2.375 0 L 2.375 -0.390625 L 2.140625 -0.390625 C 2.046875 -0.390625 1.90625 -0.390625 1.796875 -0.40625 C 1.640625 -0.421875 1.625 -0.421875 1.625 -0.5625 L 1.625 -4.046875 L 5.359375 -0.078125 C 5.421875 0 5.453125 0 5.59375 0 C 5.796875 0 5.828125 -0.03125 5.828125 -0.25 L 5.828125 -4.21875 C 5.828125 -4.328125 5.84375 -4.328125 5.859375 -4.34375 C 5.921875 -4.390625 6.265625 -4.390625 6.34375 -4.390625 Z M 6.578125 -4.390625 "/>
</g>
<g id="glyph-1-21">
<path d="M 2.65625 -1.734375 C 2.65625 -2.90625 2.234375 -3.921875 1.375 -4.765625 C 1.21875 -4.90625 0.84375 -5.21875 0.6875 -5.21875 C 0.65625 -5.21875 0.515625 -5.21875 0.515625 -5.09375 C 0.515625 -5.046875 0.546875 -5.03125 0.65625 -4.9375 C 1.359375 -4.328125 1.890625 -3.21875 1.890625 -1.75 C 1.890625 -0.78125 1.65625 0.59375 0.59375 1.484375 C 0.5625 1.515625 0.515625 1.546875 0.515625 1.609375 C 0.515625 1.734375 0.65625 1.734375 0.6875 1.734375 C 0.828125 1.734375 1.21875 1.421875 1.375 1.28125 C 2.046875 0.609375 2.65625 -0.34375 2.65625 -1.734375 Z M 2.65625 -1.734375 "/>
</g>
<g id="glyph-1-22">
<path d="M 5.953125 -1.59375 C 5.953125 -1.765625 5.875 -1.765625 5.734375 -1.765625 C 5.640625 -1.765625 5.53125 -1.765625 5.515625 -1.640625 C 5.453125 -0.578125 4.390625 -0.3125 3.78125 -0.3125 C 3.21875 -0.3125 2.578125 -0.453125 2.15625 -0.859375 C 1.75 -1.25 1.65625 -1.84375 1.65625 -2.390625 C 1.65625 -3.046875 1.796875 -3.65625 2.265625 -4.03125 C 2.75 -4.390625 3.34375 -4.46875 3.765625 -4.46875 C 4.671875 -4.46875 5.3125 -3.859375 5.453125 -3.140625 C 5.484375 -2.953125 5.484375 -2.9375 5.6875 -2.9375 L 5.734375 -2.9375 C 5.9375 -2.9375 5.953125 -2.953125 5.953125 -3.15625 L 5.953125 -4.640625 C 5.953125 -4.78125 5.953125 -4.859375 5.796875 -4.859375 C 5.71875 -4.859375 5.703125 -4.859375 5.625 -4.796875 L 5.15625 -4.390625 C 4.46875 -4.859375 3.8125 -4.859375 3.609375 -4.859375 C 1.578125 -4.859375 0.515625 -3.734375 0.515625 -2.390625 C 0.515625 -1.078125 1.546875 0.078125 3.609375 0.078125 C 5.046875 0.078125 5.953125 -0.71875 5.953125 -1.59375 Z M 5.953125 -1.59375 "/>
</g>
<g id="glyph-1-23">
<path d="M 3.984375 -4.96875 C 3.984375 -5.109375 3.875 -5.21875 3.71875 -5.21875 C 3.5625 -5.21875 3.5 -5.09375 3.46875 -5.03125 L 0.5625 1.328125 C 0.515625 1.421875 0.515625 1.484375 0.515625 1.484375 C 0.515625 1.625 0.640625 1.734375 0.78125 1.734375 C 0.9375 1.734375 1 1.609375 1.03125 1.546875 L 3.9375 -4.8125 C 3.984375 -4.90625 3.984375 -4.96875 3.984375 -4.96875 Z M 3.984375 -4.96875 "/>
</g>
<g id="glyph-1-24">
<path d="M 2.984375 0 L 2.984375 -0.390625 L 2.1875 -0.390625 L 2.1875 -4.390625 L 2.984375 -4.390625 L 2.984375 -4.78125 C 2.640625 -4.75 2.046875 -4.75 1.671875 -4.75 C 1.296875 -4.75 0.703125 -4.75 0.359375 -4.78125 L 0.359375 -4.390625 L 1.140625 -4.390625 L 1.140625 -0.390625 L 0.359375 -0.390625 L 0.359375 0 C 0.703125 -0.03125 1.296875 -0.03125 1.671875 -0.03125 C 2.03125 -0.03125 2.640625 -0.03125 2.984375 0 Z M 2.984375 0 "/>
</g>
<g id="glyph-1-25">
<path d="M 5.59375 -3.390625 C 5.59375 -4.15625 4.84375 -4.78125 3.546875 -4.78125 L 0.390625 -4.78125 L 0.390625 -4.390625 L 1.140625 -4.390625 L 1.140625 -0.390625 L 0.390625 -0.390625 L 0.390625 0 C 0.5625 -0.015625 1.546875 -0.03125 1.671875 -0.03125 C 1.8125 -0.03125 2.78125 -0.015625 2.9375 0 L 2.9375 -0.390625 L 2.1875 -0.390625 L 2.1875 -2.03125 L 3.546875 -2.03125 C 4.828125 -2.03125 5.59375 -2.625 5.59375 -3.390625 Z M 4.453125 -3.390625 C 4.453125 -2.9375 4.453125 -2.390625 3.296875 -2.390625 L 2.140625 -2.390625 L 2.140625 -4.390625 L 3.3125 -4.390625 C 4.453125 -4.390625 4.453125 -3.84375 4.453125 -3.390625 Z M 4.453125 -3.390625 "/>
</g>
<g id="glyph-1-26">
<path d="M 3.234375 -0.984375 C 3.234375 -1.3125 3.0625 -1.53125 2.90625 -1.671875 C 2.578125 -1.9375 2.28125 -1.984375 1.703125 -2.078125 C 1.296875 -2.140625 0.890625 -2.203125 0.890625 -2.484375 C 0.890625 -2.875 1.59375 -2.875 1.734375 -2.875 C 2.515625 -2.875 2.546875 -2.546875 2.578125 -2.390625 C 2.578125 -2.25 2.625 -2.234375 2.78125 -2.234375 C 2.984375 -2.234375 3.015625 -2.25 3.015625 -2.453125 L 3.015625 -2.9375 C 3.015625 -3.078125 3.015625 -3.15625 2.84375 -3.15625 C 2.796875 -3.15625 2.78125 -3.15625 2.65625 -3.09375 C 2.640625 -3.09375 2.5625 -3.046875 2.53125 -3.046875 C 2.53125 -3.046875 2.515625 -3.046875 2.484375 -3.0625 C 2.1875 -3.15625 1.90625 -3.15625 1.75 -3.15625 C 1.546875 -3.15625 1.125 -3.15625 0.78125 -2.96875 C 0.390625 -2.75 0.328125 -2.390625 0.328125 -2.21875 C 0.328125 -1.46875 1.25 -1.328125 1.734375 -1.25 C 2.15625 -1.1875 2.671875 -1.109375 2.671875 -0.75 C 2.671875 -0.28125 1.984375 -0.28125 1.8125 -0.28125 C 1.15625 -0.28125 0.90625 -0.578125 0.78125 -0.953125 C 0.734375 -1.078125 0.71875 -1.09375 0.546875 -1.09375 C 0.34375 -1.09375 0.328125 -1.0625 0.328125 -0.859375 L 0.328125 -0.1875 C 0.328125 -0.046875 0.328125 0.046875 0.484375 0.046875 C 0.546875 0.046875 0.5625 0.046875 0.703125 -0.046875 C 0.75 -0.0625 0.859375 -0.125 0.90625 -0.15625 C 1.265625 0.046875 1.640625 0.046875 1.8125 0.046875 C 2.03125 0.046875 3.234375 0.046875 3.234375 -0.984375 Z M 3.234375 -0.984375 "/>
</g>
<g id="glyph-1-27">
<path d="M 2.984375 -0.84375 L 2.984375 -1.203125 L 2.546875 -1.203125 L 2.546875 -0.875 C 2.546875 -0.390625 2.265625 -0.3125 2.125 -0.3125 C 1.71875 -0.3125 1.703125 -0.65625 1.703125 -0.84375 L 1.703125 -2.703125 L 2.84375 -2.703125 L 2.84375 -3.09375 L 1.703125 -3.09375 L 1.703125 -4.421875 L 1.265625 -4.421875 C 1.265625 -3.78125 0.9375 -3.046875 0.1875 -3.03125 L 0.1875 -2.703125 L 0.828125 -2.703125 L 0.828125 -0.84375 C 0.828125 -0.15625 1.390625 0.046875 2 0.046875 C 2.546875 0.046875 2.984375 -0.28125 2.984375 -0.84375 Z M 2.984375 -0.84375 "/>
</g>
<g id="glyph-2-0">
<path d="M 9.59375 -0.453125 L 9.84375 -0.8125 C 9.421875 -1.0625 9.25 -1.171875 8.953125 -1.375 L 7.984375 -2.0625 L 7.734375 -1.703125 C 7.921875 -1.5625 8.1875 -1.390625 8.328125 -1.1875 L 4.4375 1.25 L 5.1875 -3.390625 L 5.875 -2.9375 L 6.125 -3.296875 C 5.84375 -3.4375 5.109375 -3.9375 4.796875 -4.140625 C 4.484375 -4.34375 3.890625 -4.75 3.609375 -4.96875 L 3.359375 -4.609375 L 4.046875 -4.15625 L 3.078125 1.875 C 3.03125 2.109375 3.140625 2.1875 3.28125 2.28125 C 3.40625 2.375 3.515625 2.4375 3.75 2.3125 L 8.734375 -0.796875 C 8.84375 -0.875 8.90625 -0.921875 9.46875 -0.546875 Z M 9.59375 -0.453125 "/>
</g>
<g id="glyph-2-1">
<path d="M 5.09375 0.96875 L 4.71875 0.71875 C 4.609375 0.796875 4.1875 1.28125 4.046875 1.28125 C 3.921875 1.234375 3.375 0.875 3.234375 0.78125 L 2.171875 0.078125 C 2.796875 0.015625 3.46875 -0.03125 4.015625 -0.046875 C 4.9375 -0.0625 5.78125 -0.09375 6.28125 -0.8125 C 6.859375 -1.6875 6.4375 -2.78125 5.34375 -3.5 C 4.421875 -4.125 3.40625 -4.15625 2.9375 -3.453125 C 2.6875 -3.078125 2.859375 -2.703125 3.125 -2.53125 C 3.359375 -2.375 3.796875 -2.34375 4.046875 -2.71875 C 4.15625 -2.875 4.28125 -3.21875 4 -3.515625 C 4.421875 -3.5625 4.765625 -3.359375 4.90625 -3.265625 C 5.53125 -2.859375 5.625 -2.125 5.203125 -1.5 C 4.84375 -0.96875 4.1875 -0.703125 3.53125 -0.5625 L 0.765625 -0.03125 C 0.640625 0 0.625 0.015625 0.53125 0.15625 L 0.4375 0.296875 L 3.734375 2.484375 Z M 5.09375 0.96875 "/>
</g>
<g id="glyph-3-0">
<path d="M 7.734375 -5.703125 L 7.734375 -6.140625 C 7.25 -6.109375 7.046875 -6.109375 6.6875 -6.109375 L 5.5 -6.140625 L 5.5 -5.703125 C 5.734375 -5.703125 6.046875 -5.703125 6.28125 -5.609375 L 4.390625 -1.421875 L 2.4375 -5.703125 L 3.265625 -5.703125 L 3.265625 -6.140625 C 2.953125 -6.109375 2.0625 -6.109375 1.6875 -6.109375 C 1.3125 -6.109375 0.59375 -6.109375 0.25 -6.140625 L 0.25 -5.703125 L 1.078125 -5.703125 L 3.59375 -0.15625 C 3.703125 0.078125 3.828125 0.078125 4 0.078125 C 4.15625 0.078125 4.28125 0.078125 4.390625 -0.15625 L 6.828125 -5.5 C 6.875 -5.625 6.90625 -5.703125 7.578125 -5.703125 Z M 7.734375 -5.703125 "/>
</g>
<g id="glyph-3-1">
<path d="M 4.765625 -2.015625 L 4.3125 -2.015625 C 4.28125 -1.890625 4.203125 -1.25 4.078125 -1.1875 C 3.953125 -1.140625 3.296875 -1.140625 3.140625 -1.140625 L 1.859375 -1.140625 C 2.34375 -1.53125 2.875 -1.953125 3.328125 -2.265625 C 4.078125 -2.796875 4.765625 -3.28125 4.765625 -4.15625 C 4.765625 -5.203125 3.8125 -5.875 2.5 -5.875 C 1.390625 -5.875 0.53125 -5.34375 0.53125 -4.515625 C 0.53125 -4.0625 0.890625 -3.84375 1.203125 -3.84375 C 1.484375 -3.84375 1.859375 -4.046875 1.859375 -4.515625 C 1.859375 -4.703125 1.78125 -5.046875 1.390625 -5.140625 C 1.703125 -5.40625 2.109375 -5.4375 2.28125 -5.4375 C 3.015625 -5.4375 3.484375 -4.890625 3.484375 -4.140625 C 3.484375 -3.5 3.09375 -2.90625 2.625 -2.421875 L 0.625 -0.453125 C 0.53125 -0.359375 0.53125 -0.34375 0.53125 -0.171875 L 0.53125 0 L 4.484375 0 Z M 4.765625 -2.015625 "/>
</g>
<g id="glyph-3-2">
<path d="M 3.65625 0 L 3.65625 -0.4375 L 2.640625 -0.4375 L 2.640625 -5.703125 L 3.65625 -5.703125 L 3.65625 -6.140625 C 3.34375 -6.109375 2.375 -6.109375 2 -6.109375 C 1.625 -6.109375 0.640625 -6.109375 0.328125 -6.140625 L 0.328125 -5.703125 L 1.34375 -5.703125 L 1.34375 -0.4375 L 0.328125 -0.4375 L 0.328125 0 C 0.640625 -0.03125 1.609375 -0.03125 1.984375 -0.03125 C 2.359375 -0.03125 3.34375 -0.03125 3.65625 0 Z M 3.65625 0 "/>
</g>
<g id="glyph-3-3">
<path d="M 7.890625 -5.703125 L 7.890625 -6.140625 C 7.3125 -6.109375 7.0625 -6.109375 6.671875 -6.109375 C 6.28125 -6.109375 6.03125 -6.109375 5.4375 -6.140625 L 5.4375 -5.703125 L 5.671875 -5.703125 C 5.921875 -5.703125 5.9375 -5.703125 6.15625 -5.671875 C 6.40625 -5.65625 6.40625 -5.640625 6.40625 -5.4375 L 6.40625 -1.84375 L 2.75 -6.03125 C 2.65625 -6.140625 2.625 -6.140625 2.4375 -6.140625 L 0.375 -6.140625 L 0.375 -5.703125 L 1.34375 -5.703125 L 1.34375 -0.703125 C 1.34375 -0.5 1.328125 -0.5 1.078125 -0.46875 C 0.875 -0.4375 0.84375 -0.4375 0.609375 -0.4375 L 0.375 -0.4375 L 0.375 0 C 0.953125 -0.03125 1.203125 -0.03125 1.59375 -0.03125 C 1.984375 -0.03125 2.234375 -0.03125 2.8125 0 L 2.8125 -0.4375 L 2.59375 -0.4375 C 2.34375 -0.4375 2.328125 -0.4375 2.109375 -0.46875 C 1.859375 -0.5 1.859375 -0.5 1.859375 -0.703125 L 1.859375 -5.3125 L 6.40625 -0.109375 C 6.5 0 6.53125 0 6.65625 0 C 6.921875 0 6.921875 -0.09375 6.921875 -0.296875 L 6.921875 -5.4375 C 6.921875 -5.640625 6.9375 -5.65625 7.1875 -5.671875 C 7.390625 -5.703125 7.40625 -5.703125 7.65625 -5.703125 Z M 7.890625 -5.703125 "/>
</g>
<g id="glyph-4-0">
<path d="M 0.984375 -9.5625 L 0.65625 -9.84375 C 0.359375 -9.46875 0.21875 -9.328125 -0.015625 -9.0625 L -0.84375 -8.1875 L -0.515625 -7.90625 C -0.359375 -8.09375 -0.15625 -8.3125 0.0625 -8.40625 L 1.90625 -4.203125 L -2.578125 -5.640625 L -2.015625 -6.265625 L -2.34375 -6.546875 C -2.53125 -6.296875 -3.125 -5.640625 -3.375 -5.359375 C -3.625 -5.078125 -4.109375 -4.546875 -4.375 -4.3125 L -4.046875 -4.03125 L -3.5 -4.640625 L 2.3125 -2.765625 C 2.546875 -2.6875 2.640625 -2.78125 2.75 -2.90625 C 2.859375 -3.03125 2.9375 -3.125 2.84375 -3.359375 L 0.53125 -8.75 C 0.46875 -8.875 0.421875 -8.953125 0.875 -9.453125 Z M 0.984375 -9.5625 "/>
</g>
<g id="glyph-4-1">
<path d="M 1.71875 -4.890625 L 1.421875 -4.546875 C 1.46875 -4.4375 1.90625 -3.953125 1.875 -3.8125 C 1.8125 -3.6875 1.375 -3.203125 1.265625 -3.09375 L 0.40625 -2.140625 C 0.4375 -2.765625 0.5 -3.4375 0.5625 -4 C 0.6875 -4.890625 0.78125 -5.734375 0.125 -6.328125 C -0.640625 -7.03125 -1.78125 -6.78125 -2.65625 -5.796875 C -3.40625 -4.984375 -3.59375 -3.984375 -2.984375 -3.421875 C -2.640625 -3.125 -2.25 -3.234375 -2.03125 -3.46875 C -1.84375 -3.671875 -1.75 -4.09375 -2.09375 -4.40625 C -2.234375 -4.53125 -2.53125 -4.703125 -2.859375 -4.484375 C -2.859375 -4.90625 -2.59375 -5.21875 -2.484375 -5.34375 C -1.984375 -5.890625 -1.28125 -5.875 -0.71875 -5.359375 C -0.25 -4.9375 -0.078125 -4.25 -0.03125 -3.5625 L 0.09375 -0.78125 C 0.09375 -0.625 0.109375 -0.625 0.234375 -0.5 L 0.359375 -0.390625 L 3.015625 -3.3125 Z M 1.71875 -4.890625 "/>
</g>
<g id="glyph-4-2">
<path d="M 1.21875 -7.859375 C 0.484375 -8.515625 -0.6875 -8.375 -1.71875 -7.234375 L -4.296875 -4.40625 L -3.96875 -4.125 L -3.3125 -4.84375 L 0.578125 -1.296875 L -0.078125 -0.578125 L 0.25 -0.28125 C 0.453125 -0.53125 1.078125 -1.21875 1.3125 -1.484375 C 1.578125 -1.765625 2.203125 -2.453125 2.421875 -2.671875 L 2.09375 -2.96875 L 1.453125 -2.25 L -0.203125 -3.75 L 0.890625 -4.96875 C 1.75 -5.90625 2 -7.140625 1.21875 -7.859375 Z M 0.265625 -6.828125 C 0.734375 -6.40625 1.234375 -5.953125 0.296875 -4.921875 L -0.53125 -4 L -2.46875 -5.765625 L -1.625 -6.703125 C -0.703125 -7.71875 -0.203125 -7.25 0.265625 -6.828125 Z M 0.265625 -6.828125 "/>
</g>
</g>
<clipPath id="clip-0">
<path clip-rule="nonzero" d="M 5.660156 5.769531 L 345.335938 5.769531 L 345.335938 288.832031 L 5.660156 288.832031 Z M 5.660156 5.769531 "/>
</clipPath>
<clipPath id="clip-1">
<path clip-rule="nonzero" d="M 133 5.769531 L 218 5.769531 L 218 288.832031 L 133 288.832031 Z M 133 5.769531 "/>
</clipPath>
<clipPath id="clip-2">
<path clip-rule="nonzero" d="M 5.660156 104 L 345.335938 104 L 345.335938 190 L 5.660156 190 Z M 5.660156 104 "/>
</clipPath>
<clipPath id="clip-3">
<path clip-rule="nonzero" d="M 174 188 L 177 188 L 177 288.832031 L 174 288.832031 Z M 174 188 "/>
</clipPath>
<clipPath id="clip-4">
<path clip-rule="nonzero" d="M 174 5.769531 L 177 5.769531 L 177 106 L 174 106 Z M 174 5.769531 "/>
</clipPath>
<clipPath id="clip-5">
<path clip-rule="nonzero" d="M 5.660156 146 L 135 146 L 135 149 L 5.660156 149 Z M 5.660156 146 "/>
</clipPath>
<clipPath id="clip-6">
<path clip-rule="nonzero" d="M 216 146 L 345.335938 146 L 345.335938 149 L 216 149 Z M 216 146 "/>
</clipPath>
<clipPath id="clip-7">
<path clip-rule="nonzero" d="M 5.660156 77 L 182 77 L 182 260 L 5.660156 260 Z M 5.660156 77 "/>
</clipPath>
<clipPath id="clip-8">
<path clip-rule="nonzero" d="M 134 184 L 259 184 L 259 288.832031 L 134 288.832031 Z M 134 184 "/>
</clipPath>
<clipPath id="clip-9">
<path clip-rule="nonzero" d="M 106 155 L 288 155 L 288 288.832031 L 106 288.832031 Z M 106 155 "/>
</clipPath>
<clipPath id="clip-10">
<path clip-rule="nonzero" d="M 254 33 L 345.335938 33 L 345.335938 92 L 254 92 Z M 254 33 "/>
</clipPath>
<clipPath id="clip-11">
<path clip-rule="nonzero" d="M 243 21 L 345.335938 21 L 345.335938 103 L 243 103 Z M 243 21 "/>
</clipPath>
<clipPath id="clip-12">
<path clip-rule="nonzero" d="M 5.660156 5.769531 L 345.335938 5.769531 L 345.335938 288.832031 L 5.660156 288.832031 Z M 5.660156 5.769531 "/>
</clipPath>
</defs>
<g clip-path="url(#clip-0)">
<path fill-rule="nonzero" fill="rgb(89.99939%, 100%, 89.99939%)" fill-opacity="1" d="M 5.660156 288.832031 L 5.660156 5.769531 L 345.335938 5.769531 L 345.335938 288.832031 Z M 5.660156 288.832031 "/>
</g>
<g clip-path="url(#clip-1)">
<path fill-rule="nonzero" fill="rgb(59.999084%, 59.999084%, 59.999084%)" fill-opacity="1" d="M 133.039062 288.832031 L 133.039062 5.769531 L 217.957031 5.769531 L 217.957031 288.832031 Z M 133.039062 288.832031 "/>
</g>
<g clip-path="url(#clip-2)">
<path fill-rule="nonzero" fill="rgb(59.999084%, 59.999084%, 59.999084%)" fill-opacity="1" d="M 5.660156 189.761719 L 5.660156 104.84375 L 345.335938 104.84375 L 345.335938 189.761719 Z M 5.660156 189.761719 "/>
</g>
<g clip-path="url(#clip-3)">
<path fill="none" stroke-width="1.99255" stroke-linecap="butt" stroke-linejoin="miter" stroke="rgb(100%, 100%, 100%)" stroke-opacity="1" stroke-dasharray="9.96277 9.96277" stroke-miterlimit="10" d="M 170.082644 0.000675581 L 170.082644 99.213042 " transform="matrix(0.998568, 0, 0, -0.998568, 5.660883, 288.832706)"/>
</g>
<g clip-path="url(#clip-4)">
<path fill="none" stroke-width="1.99255" stroke-linecap="butt" stroke-linejoin="miter" stroke="rgb(100%, 100%, 100%)" stroke-opacity="1" stroke-dasharray="9.96277 9.96277" stroke-miterlimit="10" d="M 170.082644 184.252772 L 170.082644 283.469051 " transform="matrix(0.998568, 0, 0, -0.998568, 5.660883, 288.832706)"/>
</g>
<g clip-path="url(#clip-5)">
<path fill="none" stroke-width="1.99255" stroke-linecap="butt" stroke-linejoin="miter" stroke="rgb(100%, 100%, 100%)" stroke-opacity="1" stroke-dasharray="9.96277 9.96277" stroke-miterlimit="10" d="M -0.000727815 141.734863 L 127.560823 141.734863 " transform="matrix(0.998568, 0, 0, -0.998568, 5.660883, 288.832706)"/>
</g>
<g clip-path="url(#clip-6)">
<path fill="none" stroke-width="1.99255" stroke-linecap="butt" stroke-linejoin="miter" stroke="rgb(100%, 100%, 100%)" stroke-opacity="1" stroke-dasharray="9.96277 9.96277" stroke-miterlimit="10" d="M 212.600554 141.734863 L 340.162105 141.734863 " transform="matrix(0.998568, 0, 0, -0.998568, 5.660883, 288.832706)"/>
</g>
<path fill-rule="nonzero" fill="rgb(100%, 100%, 100%)" fill-opacity="1" d="M 113.222656 184.101562 L 113.222656 179.855469 L 127.378906 179.855469 L 127.378906 184.101562 Z M 113.222656 184.101562 "/>
<path fill-rule="nonzero" fill="rgb(100%, 100%, 100%)" fill-opacity="1" d="M 223.617188 184.101562 L 223.617188 179.855469 L 237.773438 179.855469 L 237.773438 184.101562 Z M 223.617188 184.101562 "/>
<path fill-rule="nonzero" fill="rgb(100%, 100%, 100%)" fill-opacity="1" d="M 113.222656 175.609375 L 113.222656 171.363281 L 127.378906 171.363281 L 127.378906 175.609375 Z M 113.222656 175.609375 "/>
<path fill-rule="nonzero" fill="rgb(100%, 100%, 100%)" fill-opacity="1" d="M 223.617188 175.609375 L 223.617188 171.363281 L 237.773438 171.363281 L 237.773438 175.609375 Z M 223.617188 175.609375 "/>
<path fill-rule="nonzero" fill="rgb(100%, 100%, 100%)" fill-opacity="1" d="M 113.222656 167.117188 L 113.222656 162.871094 L 127.378906 162.871094 L 127.378906 167.117188 Z M 113.222656 167.117188 "/>
<path fill-rule="nonzero" fill="rgb(100%, 100%, 100%)" fill-opacity="1" d="M 223.617188 167.117188 L 223.617188 162.871094 L 237.773438 162.871094 L 237.773438 167.117188 Z M 223.617188 167.117188 "/>
<path fill-rule="nonzero" fill="rgb(100%, 100%, 100%)" fill-opacity="1" d="M 113.222656 158.625 L 113.222656 154.378906 L 127.378906 154.378906 L 127.378906 158.625 Z M 113.222656 158.625 "/>
<path fill-rule="nonzero" fill="rgb(100%, 100%, 100%)" fill-opacity="1" d="M 223.617188 158.625 L 223.617188 154.378906 L 237.773438 154.378906 L 237.773438 158.625 Z M 223.617188 158.625 "/>
<path fill-rule="nonzero" fill="rgb(100%, 100%, 100%)" fill-opacity="1" d="M 113.222656 150.132812 L 113.222656 145.886719 L 127.378906 145.886719 L 127.378906 150.132812 Z M 113.222656 150.132812 "/>
<path fill-rule="nonzero" fill="rgb(100%, 100%, 100%)" fill-opacity="1" d="M 223.617188 150.132812 L 223.617188 145.886719 L 237.773438 145.886719 L 237.773438 150.132812 Z M 223.617188 150.132812 "/>
<path fill-rule="nonzero" fill="rgb(100%, 100%, 100%)" fill-opacity="1" d="M 113.222656 141.640625 L 113.222656 137.394531 L 127.378906 137.394531 L 127.378906 141.640625 Z M 113.222656 141.640625 "/>
<path fill-rule="nonzero" fill="rgb(100%, 100%, 100%)" fill-opacity="1" d="M 223.617188 141.640625 L 223.617188 137.394531 L 237.773438 137.394531 L 237.773438 141.640625 Z M 223.617188 141.640625 "/>
<path fill-rule="nonzero" fill="rgb(100%, 100%, 100%)" fill-opacity="1" d="M 113.222656 133.148438 L 113.222656 128.902344 L 127.378906 128.902344 L 127.378906 133.148438 Z M 113.222656 133.148438 "/>
<path fill-rule="nonzero" fill="rgb(100%, 100%, 100%)" fill-opacity="1" d="M 223.617188 133.148438 L 223.617188 128.902344 L 237.773438 128.902344 L 237.773438 133.148438 Z M 223.617188 133.148438 "/>
<path fill-rule="nonzero" fill="rgb(100%, 100%, 100%)" fill-opacity="1" d="M 113.222656 124.65625 L 113.222656 120.410156 L 127.378906 120.410156 L 127.378906 124.65625 Z M 113.222656 124.65625 "/>
<path fill-rule="nonzero" fill="rgb(100%, 100%, 100%)" fill-opacity="1" d="M 223.617188 124.65625 L 223.617188 120.410156 L 237.773438 120.410156 L 237.773438 124.65625 Z M 223.617188 124.65625 "/>
<path fill-rule="nonzero" fill="rgb(100%, 100%, 100%)" fill-opacity="1" d="M 113.222656 116.164062 L 113.222656 111.917969 L 127.378906 111.917969 L 127.378906 116.164062 Z M 113.222656 116.164062 "/>
<path fill-rule="nonzero" fill="rgb(100%, 100%, 100%)" fill-opacity="1" d="M 223.617188 116.164062 L 223.617188 111.917969 L 237.773438 111.917969 L 237.773438 116.164062 Z M 223.617188 116.164062 "/>
<path fill-rule="nonzero" fill="rgb(100%, 100%, 100%)" fill-opacity="1" d="M 113.222656 107.671875 L 113.222656 103.425781 L 127.378906 103.425781 L 127.378906 107.671875 Z M 113.222656 107.671875 "/>
<path fill-rule="nonzero" fill="rgb(100%, 100%, 100%)" fill-opacity="1" d="M 223.617188 107.671875 L 223.617188 103.425781 L 237.773438 103.425781 L 237.773438 107.671875 Z M 223.617188 107.671875 "/>
<path fill-rule="nonzero" fill="rgb(100%, 100%, 100%)" fill-opacity="1" d="M 138.699219 209.574219 L 138.699219 195.421875 L 142.945312 195.421875 L 142.945312 209.574219 Z M 138.699219 209.574219 "/>
<path fill-rule="nonzero" fill="rgb(100%, 100%, 100%)" fill-opacity="1" d="M 138.699219 99.179688 L 138.699219 85.027344 L 142.945312 85.027344 L 142.945312 99.179688 Z M 138.699219 99.179688 "/>
<path fill-rule="nonzero" fill="rgb(100%, 100%, 100%)" fill-opacity="1" d="M 147.191406 209.574219 L 147.191406 195.421875 L 151.4375 195.421875 L 151.4375 209.574219 Z M 147.191406 209.574219 "/>
<path fill-rule="nonzero" fill="rgb(100%, 100%, 100%)" fill-opacity="1" d="M 147.191406 99.179688 L 147.191406 85.027344 L 151.4375 85.027344 L 151.4375 99.179688 Z M 147.191406 99.179688 "/>
<path fill-rule="nonzero" fill="rgb(100%, 100%, 100%)" fill-opacity="1" d="M 155.683594 209.574219 L 155.683594 195.421875 L 159.929688 195.421875 L 159.929688 209.574219 Z M 155.683594 209.574219 "/>
<path fill-rule="nonzero" fill="rgb(100%, 100%, 100%)" fill-opacity="1" d="M 155.683594 99.179688 L 155.683594 85.027344 L 159.929688 85.027344 L 159.929688 99.179688 Z M 155.683594 99.179688 "/>
<path fill-rule="nonzero" fill="rgb(100%, 100%, 100%)" fill-opacity="1" d="M 164.175781 209.574219 L 164.175781 195.421875 L 168.421875 195.421875 L 168.421875 209.574219 Z M 164.175781 209.574219 "/>
<path fill-rule="nonzero" fill="rgb(100%, 100%, 100%)" fill-opacity="1" d="M 164.175781 99.179688 L 164.175781 85.027344 L 168.421875 85.027344 L 168.421875 99.179688 Z M 164.175781 99.179688 "/>
<path fill-rule="nonzero" fill="rgb(100%, 100%, 100%)" fill-opacity="1" d="M 172.667969 209.574219 L 172.667969 195.421875 L 176.914062 195.421875 L 176.914062 209.574219 Z M 172.667969 209.574219 "/>
<path fill-rule="nonzero" fill="rgb(100%, 100%, 100%)" fill-opacity="1" d="M 172.667969 99.179688 L 172.667969 85.027344 L 176.914062 85.027344 L 176.914062 99.179688 Z M 172.667969 99.179688 "/>
<path fill-rule="nonzero" fill="rgb(100%, 100%, 100%)" fill-opacity="1" d="M 181.160156 209.574219 L 181.160156 195.421875 L 185.40625 195.421875 L 185.40625 209.574219 Z M 181.160156 209.574219 "/>
<path fill-rule="nonzero" fill="rgb(100%, 100%, 100%)" fill-opacity="1" d="M 181.160156 99.179688 L 181.160156 85.027344 L 185.40625 85.027344 L 185.40625 99.179688 Z M 181.160156 99.179688 "/>
<path fill-rule="nonzero" fill="rgb(100%, 100%, 100%)" fill-opacity="1" d="M 189.652344 209.574219 L 189.652344 195.421875 L 193.898438 195.421875 L 193.898438 209.574219 Z M 189.652344 209.574219 "/>
<path fill-rule="nonzero" fill="rgb(100%, 100%, 100%)" fill-opacity="1" d="M 189.652344 99.179688 L 189.652344 85.027344 L 193.898438 85.027344 L 193.898438 99.179688 Z M 189.652344 99.179688 "/>
<path fill-rule="nonzero" fill="rgb(100%, 100%, 100%)" fill-opacity="1" d="M 198.144531 209.574219 L 198.144531 195.421875 L 202.390625 195.421875 L 202.390625 209.574219 Z M 198.144531 209.574219 "/>
<path fill-rule="nonzero" fill="rgb(100%, 100%, 100%)" fill-opacity="1" d="M 198.144531 99.179688 L 198.144531 85.027344 L 202.390625 85.027344 L 202.390625 99.179688 Z M 198.144531 99.179688 "/>
<path fill-rule="nonzero" fill="rgb(100%, 100%, 100%)" fill-opacity="1" d="M 206.636719 209.574219 L 206.636719 195.421875 L 210.882812 195.421875 L 210.882812 209.574219 Z M 206.636719 209.574219 "/>
<path fill-rule="nonzero" fill="rgb(100%, 100%, 100%)" fill-opacity="1" d="M 206.636719 99.179688 L 206.636719 85.027344 L 210.882812 85.027344 L 210.882812 99.179688 Z M 206.636719 99.179688 "/>
<path fill-rule="nonzero" fill="rgb(100%, 100%, 100%)" fill-opacity="1" d="M 215.125 209.574219 L 215.125 195.421875 L 219.371094 195.421875 L 219.371094 209.574219 Z M 215.125 209.574219 "/>
<path fill-rule="nonzero" fill="rgb(100%, 100%, 100%)" fill-opacity="1" d="M 215.125 99.179688 L 215.125 85.027344 L 219.371094 85.027344 L 219.371094 99.179688 Z M 215.125 99.179688 "/>
<path fill-rule="nonzero" fill="rgb(89.99939%, 89.99939%, 89.99939%)" fill-opacity="1" stroke-width="0.79701" stroke-linecap="butt" stroke-linejoin="miter" stroke="rgb(0%, 0%, 0%)" stroke-opacity="1" stroke-miterlimit="10" d="M 14.171909 212.601957 L 14.171909 269.296414 L 99.215551 269.296414 L 99.215551 212.601957 Z M 14.171909 212.601957 " transform="matrix(0.998568, 0, 0, -0.998568, 5.660883, 288.832706)"/>
<g fill="rgb(0%, 0%, 0%)" fill-opacity="1">
<use xlink:href="#glyph-0-0" x="43.418743" y="51.70971"/>
<use xlink:href="#glyph-0-1" x="50.935705" y="51.70971"/>
<use xlink:href="#glyph-0-2" x="57.291697" y="51.70971"/>
<use xlink:href="#glyph-0-3" x="60.47019" y="51.70971"/>
<use xlink:href="#glyph-0-4" x="63.966035" y="51.70971"/>
<use xlink:href="#glyph-0-5" x="67.144528" y="51.70971"/>
<use xlink:href="#glyph-0-2" x="72.229122" y="51.70971"/>
<use xlink:href="#glyph-0-6" x="75.407615" y="51.70971"/>
</g>
<path fill-rule="nonzero" fill="rgb(69.999695%, 69.999695%, 69.999695%)" fill-opacity="1" d="M 73.597656 249.203125 C 73.597656 244.515625 69.792969 240.710938 65.105469 240.710938 C 60.414062 240.710938 56.613281 244.515625 56.613281 249.203125 C 56.613281 253.894531 60.414062 257.695312 65.105469 257.695312 C 69.792969 257.695312 73.597656 253.894531 73.597656 249.203125 Z M 66.519531 250.621094 C 66.519531 246.710938 63.351562 243.542969 59.441406 243.542969 C 55.535156 243.542969 52.367188 246.710938 52.367188 250.621094 C 52.367188 254.527344 55.535156 257.695312 59.441406 257.695312 C 63.351562 257.695312 66.519531 254.527344 66.519531 250.621094 Z M 76.425781 243.542969 C 76.425781 239.632812 73.257812 236.464844 69.351562 236.464844 C 65.441406 236.464844 62.273438 239.632812 62.273438 243.542969 C 62.273438 247.449219 65.441406 250.621094 69.351562 250.621094 C 73.257812 250.621094 76.425781 247.449219 76.425781 243.542969 Z M 76.425781 243.542969 "/>
<path fill-rule="nonzero" fill="rgb(0%, 50%, 0%)" fill-opacity="1" stroke-width="0.79701" stroke-linecap="butt" stroke-linejoin="miter" stroke="rgb(0%, 0%, 0%)" stroke-opacity="1" stroke-miterlimit="10" d="M 63.782004 49.606859 C 63.782004 53.522622 60.605581 56.695133 56.69373 56.695133 C 52.777967 56.695133 49.605455 53.522622 49.605455 49.606859 C 49.605455 45.691096 52.777967 42.518585 56.69373 42.518585 C 60.605581 42.518585 63.782004 45.691096 63.782004 49.606859 Z M 68.030274 43.938587 C 68.030274 47.068068 65.495394 49.606859 62.362002 49.606859 C 59.232521 49.606859 56.69373 47.068068 56.69373 43.938587 C 56.69373 40.805194 59.232521 38.266403 62.362002 38.266403 C 65.495394 38.266403 68.030274 40.805194 68.030274 43.938587 Z M 57.401775 42.518585 C 57.401775 46.043163 54.546123 48.898814 51.025457 48.898814 C 47.50088 48.898814 44.645228 46.043163 44.645228 42.518585 C 44.645228 38.997919 47.50088 36.142268 51.025457 36.142268 C 54.546123 36.142268 57.401775 38.997919 57.401775 42.518585 Z M 65.198094 36.850313 C 65.198094 39.983705 62.659302 42.518585 59.529822 42.518585 C 56.396429 42.518585 53.857638 39.983705 53.857638 36.850313 C 53.857638 33.720832 56.396429 31.18204 59.529822 31.18204 C 62.659302 31.18204 65.198094 33.720832 65.198094 36.850313 Z M 58.10982 38.266403 C 58.10982 40.617425 56.20866 42.518585 53.857638 42.518585 C 51.510527 42.518585 49.605455 40.617425 49.605455 38.266403 C 49.605455 35.919292 51.510527 34.014221 53.857638 34.014221 C 56.20866 34.014221 58.10982 35.919292 58.10982 38.266403 Z M 58.10982 38.266403 " transform="matrix(0.998568, 0, 0, -0.998568, 5.660883, 288.832706)"/>
<path fill-rule="nonzero" fill="rgb(69.999695%, 69.999695%, 69.999695%)" fill-opacity="1" d="M 116.054688 220.898438 C 116.054688 216.207031 112.253906 212.40625 107.5625 212.40625 C 102.875 212.40625 99.070312 216.207031 99.070312 220.898438 C 99.070312 225.585938 102.875 229.390625 107.5625 229.390625 C 112.253906 229.390625 116.054688 225.585938 116.054688 220.898438 Z M 108.980469 222.3125 C 108.980469 218.40625 105.808594 215.238281 101.902344 215.238281 C 97.992188 215.238281 94.824219 218.40625 94.824219 222.3125 C 94.824219 226.222656 97.992188 229.390625 101.902344 229.390625 C 105.808594 229.390625 108.980469 226.222656 108.980469 222.3125 Z M 118.886719 215.238281 C 118.886719 211.328125 115.71875 208.160156 111.808594 208.160156 C 107.902344 208.160156 104.734375 211.328125 104.734375 215.238281 C 104.734375 219.144531 107.902344 222.3125 111.808594 222.3125 C 115.71875 222.3125 118.886719 219.144531 118.886719 215.238281 Z M 118.886719 215.238281 "/>
<path fill-rule="nonzero" fill="rgb(0%, 50%, 0%)" fill-opacity="1" stroke-width="0.79701" stroke-linecap="butt" stroke-linejoin="miter" stroke="rgb(0%, 0%, 0%)" stroke-opacity="1" stroke-miterlimit="10" d="M 106.299913 77.952132 C 106.299913 81.867895 103.127402 85.040406 99.215551 85.040406 C 95.299788 85.040406 92.127276 81.867895 92.127276 77.952132 C 92.127276 74.040281 95.299788 70.867769 99.215551 70.867769 C 103.127402 70.867769 106.299913 74.040281 106.299913 77.952132 Z M 110.552095 72.283859 C 110.552095 75.417252 108.013304 77.952132 104.883823 77.952132 C 101.75043 77.952132 99.215551 75.417252 99.215551 72.283859 C 99.215551 69.154379 101.75043 66.615587 104.883823 66.615587 C 108.013304 66.615587 110.552095 69.154379 110.552095 72.283859 Z M 99.923596 70.867769 C 99.923596 74.388435 97.067944 77.244087 93.543367 77.244087 C 90.022701 77.244087 87.167049 74.388435 87.167049 70.867769 C 87.167049 67.343192 90.022701 64.48754 93.543367 64.48754 C 97.067944 64.48754 99.923596 67.343192 99.923596 70.867769 Z M 107.716003 65.199497 C 107.716003 68.328978 105.181123 70.867769 102.047731 70.867769 C 98.91825 70.867769 96.379459 68.328978 96.379459 65.199497 C 96.379459 62.066104 98.91825 59.527313 102.047731 59.527313 C 105.181123 59.527313 107.716003 62.066104 107.716003 65.199497 Z M 100.631641 66.615587 C 100.631641 68.962698 98.726569 70.867769 96.379459 70.867769 C 94.032348 70.867769 92.127276 68.962698 92.127276 66.615587 C 92.127276 64.268477 94.032348 62.363405 96.379459 62.363405 C 98.726569 62.363405 100.631641 64.268477 100.631641 66.615587 Z M 100.631641 66.615587 " transform="matrix(0.998568, 0, 0, -0.998568, 5.660883, 288.832706)"/>
<path fill-rule="nonzero" fill="rgb(69.999695%, 69.999695%, 69.999695%)" fill-opacity="1" d="M 285.890625 51.058594 C 285.890625 46.371094 282.089844 42.570312 277.402344 42.570312 C 272.710938 42.570312 268.910156 46.371094 268.910156 51.058594 C 268.910156 55.75 272.710938 59.550781 277.402344 59.550781 C 282.089844 59.550781 285.890625 55.75 285.890625 51.058594 Z M 278.816406 52.476562 C 278.816406 48.566406 275.648438 45.398438 271.738281 45.398438 C 267.832031 45.398438 264.664062 48.566406 264.664062 52.476562 C 264.664062 56.382812 267.832031 59.550781 271.738281 59.550781 C 275.648438 59.550781 278.816406 56.382812 278.816406 52.476562 Z M 288.722656 45.398438 C 288.722656 41.492188 285.554688 38.324219 281.648438 38.324219 C 277.738281 38.324219 274.570312 41.492188 274.570312 45.398438 C 274.570312 49.308594 277.738281 52.476562 281.648438 52.476562 C 285.554688 52.476562 288.722656 49.308594 288.722656 45.398438 Z M 288.722656 45.398438 "/>
<path fill-rule="nonzero" fill="rgb(0%, 50%, 0%)" fill-opacity="1" stroke-width="0.79701" stroke-linecap="butt" stroke-linejoin="miter" stroke="rgb(0%, 0%, 0%)" stroke-opacity="1" stroke-miterlimit="10" d="M 276.383285 248.035504 C 276.383285 251.947355 273.206862 255.119866 269.295011 255.119866 C 265.379248 255.119866 262.206737 251.947355 262.206737 248.035504 C 262.206737 244.119741 265.379248 240.94723 269.295011 240.94723 C 273.206862 240.94723 276.383285 244.119741 276.383285 248.035504 Z M 280.631555 242.367232 C 280.631555 245.496713 278.096676 248.035504 274.963283 248.035504 C 271.833802 248.035504 269.295011 245.496713 269.295011 242.367232 C 269.295011 239.233839 271.833802 236.695048 274.963283 236.695048 C 278.096676 236.695048 280.631555 239.233839 280.631555 242.367232 Z M 270.003056 240.94723 C 270.003056 244.471808 267.147405 247.327459 263.626739 247.327459 C 260.102161 247.327459 257.24651 244.471808 257.24651 240.94723 C 257.24651 237.426564 260.102161 234.570913 263.626739 234.570913 C 267.147405 234.570913 270.003056 237.426564 270.003056 240.94723 Z M 277.799375 235.278958 C 277.799375 238.408438 275.260584 240.94723 272.131103 240.94723 C 268.99771 240.94723 266.458919 238.408438 266.458919 235.278958 C 266.458919 232.145565 268.99771 229.610685 272.131103 229.610685 C 275.260584 229.610685 277.799375 232.145565 277.799375 235.278958 Z M 270.711101 236.695048 C 270.711101 239.04607 268.809941 240.94723 266.458919 240.94723 C 264.111808 240.94723 262.206737 239.04607 262.206737 236.695048 C 262.206737 234.347937 264.111808 232.442866 266.458919 232.442866 C 268.809941 232.442866 270.711101 234.347937 270.711101 236.695048 Z M 270.711101 236.695048 " transform="matrix(0.998568, 0, 0, -0.998568, 5.660883, 288.832706)"/>
<path fill-rule="nonzero" fill="rgb(69.999695%, 69.999695%, 69.999695%)" fill-opacity="1" d="M 314.199219 235.050781 C 314.199219 230.359375 310.398438 226.558594 305.707031 226.558594 C 301.015625 226.558594 297.214844 230.359375 297.214844 235.050781 C 297.214844 239.742188 301.015625 243.542969 305.707031 243.542969 C 310.398438 243.542969 314.199219 239.742188 314.199219 235.050781 Z M 307.121094 236.464844 C 307.121094 232.558594 303.953125 229.390625 300.046875 229.390625 C 296.136719 229.390625 292.96875 232.558594 292.96875 236.464844 C 292.96875 240.375 296.136719 243.542969 300.046875 243.542969 C 303.953125 243.542969 307.121094 240.375 307.121094 236.464844 Z M 317.027344 229.390625 C 317.027344 225.480469 313.859375 222.3125 309.953125 222.3125 C 306.042969 222.3125 302.875 225.480469 302.875 229.390625 C 302.875 233.296875 306.042969 236.464844 309.953125 236.464844 C 313.859375 236.464844 317.027344 233.296875 317.027344 229.390625 Z M 317.027344 229.390625 "/>
<path fill-rule="nonzero" fill="rgb(0%, 50%, 0%)" fill-opacity="1" stroke-width="0.79701" stroke-linecap="butt" stroke-linejoin="miter" stroke="rgb(0%, 0%, 0%)" stroke-opacity="1" stroke-miterlimit="10" d="M 304.728558 63.779495 C 304.728558 67.695258 301.556047 70.867769 297.640284 70.867769 C 293.728433 70.867769 290.555921 67.695258 290.555921 63.779495 C 290.555921 59.867644 293.728433 56.695133 297.640284 56.695133 C 301.556047 56.695133 304.728558 59.867644 304.728558 63.779495 Z M 308.98074 58.111223 C 308.98074 61.240704 306.441949 63.779495 303.312468 63.779495 C 300.179075 63.779495 297.640284 61.240704 297.640284 58.111223 C 297.640284 54.981742 300.179075 52.442951 303.312468 52.442951 C 306.441949 52.442951 308.98074 54.981742 308.98074 58.111223 Z M 298.348329 56.695133 C 298.348329 60.215799 295.496589 63.07145 291.972012 63.07145 C 288.451346 63.07145 285.595694 60.215799 285.595694 56.695133 C 285.595694 53.170555 288.451346 50.314904 291.972012 50.314904 C 295.496589 50.314904 298.348329 53.170555 298.348329 56.695133 Z M 306.144648 51.022949 C 306.144648 54.156342 303.605857 56.695133 300.476376 56.695133 C 297.346895 56.695133 294.808104 54.156342 294.808104 51.022949 C 294.808104 47.893468 297.346895 45.354677 300.476376 45.354677 C 303.605857 45.354677 306.144648 47.893468 306.144648 51.022949 Z M 299.060286 52.442951 C 299.060286 54.790062 297.155214 56.695133 294.808104 56.695133 C 292.457081 56.695133 290.555921 54.790062 290.555921 52.442951 C 290.555921 50.091928 292.457081 48.190769 294.808104 48.190769 C 297.155214 48.190769 299.060286 50.091928 299.060286 52.442951 Z M 299.060286 52.442951 " transform="matrix(0.998568, 0, 0, -0.998568, 5.660883, 288.832706)"/>
<path fill="none" stroke-width="0.3985" stroke-linecap="butt" stroke-linejoin="miter" stroke="rgb(50%, 50%, 50%)" stroke-opacity="1" stroke-miterlimit="10" d="M 113.388187 120.473953 C 113.388187 136.129181 100.69423 148.819225 85.039002 148.819225 C 69.383774 148.819225 56.69373 136.129181 56.69373 120.473953 C 56.69373 104.818725 69.383774 92.12868 85.039002 92.12868 C 100.69423 92.12868 113.388187 104.818725 113.388187 120.473953 Z M 113.388187 120.473953 " transform="matrix(0.998568, 0, 0, -0.998568, 5.660883, 288.832706)"/>
<path fill="none" stroke-width="0.3985" stroke-linecap="butt" stroke-linejoin="miter" stroke="rgb(50%, 50%, 50%)" stroke-opacity="1" stroke-miterlimit="10" d="M 141.73346 120.473953 C 141.73346 151.784409 116.35337 177.16841 85.039002 177.16841 C 53.728546 177.16841 28.348457 151.784409 28.348457 120.473953 C 28.348457 89.163497 53.728546 63.779495 85.039002 63.779495 C 116.35337 63.779495 141.73346 89.163497 141.73346 120.473953 Z M 141.73346 120.473953 " transform="matrix(0.998568, 0, 0, -0.998568, 5.660883, 288.832706)"/>
<g clip-path="url(#clip-7)">
<path fill="none" stroke-width="0.3985" stroke-linecap="butt" stroke-linejoin="miter" stroke="rgb(50%, 50%, 50%)" stroke-opacity="1" stroke-miterlimit="10" d="M 170.082644 120.473953 C 170.082644 167.439636 132.008598 205.513683 85.039002 205.513683 C 38.073319 205.513683 -0.000727815 167.439636 -0.000727815 120.473953 C -0.000727815 73.508269 38.073319 35.434222 85.039002 35.434222 C 132.008598 35.434222 170.082644 73.508269 170.082644 120.473953 Z M 170.082644 120.473953 " transform="matrix(0.998568, 0, 0, -0.998568, 5.660883, 288.832706)"/>
</g>
<path fill-rule="nonzero" fill="rgb(100%, 69.999695%, 69.999695%)" fill-opacity="1" d="M 61 180.554688 L 61 159.625 C 61 158.523438 61.890625 157.632812 62.988281 157.632812 L 118.167969 157.632812 C 119.269531 157.632812 120.160156 158.523438 120.160156 159.625 L 120.160156 180.554688 C 120.160156 181.652344 119.269531 182.542969 118.167969 182.542969 L 62.988281 182.542969 C 61.890625 182.542969 61 181.652344 61 180.554688 Z M 61 180.554688 "/>
<path fill-rule="nonzero" fill="rgb(100%, 100%, 100%)" fill-opacity="1" stroke-width="0.79701" stroke-linecap="butt" stroke-linejoin="miter" stroke="rgb(0%, 0%, 0%)" stroke-opacity="1" stroke-miterlimit="10" d="M 56.975383 109.994104 L 56.975383 130.953802 C 56.975383 132.053032 57.867285 132.944934 58.970427 132.944934 L 111.11149 132.944934 C 112.21072 132.944934 113.102622 132.053032 113.102622 130.953802 L 113.102622 109.994104 C 113.102622 108.894874 112.21072 108.002971 111.11149 108.002971 L 58.970427 108.002971 C 57.867285 108.002971 56.975383 108.894874 56.975383 109.994104 Z M 56.975383 109.994104 " transform="matrix(0.998568, 0, 0, -0.998568, 5.660883, 288.832706)"/>
<path fill-rule="nonzero" fill="rgb(29.998779%, 29.998779%, 29.998779%)" fill-opacity="1" stroke-width="0.79701" stroke-linecap="butt" stroke-linejoin="miter" stroke="rgb(0%, 0%, 0%)" stroke-opacity="1" stroke-miterlimit="10" d="M 92.835322 111.120717 L 100.631641 112.677633 L 100.631641 128.270272 L 92.835322 129.827189 Z M 92.835322 111.120717 " transform="matrix(0.998568, 0, 0, -0.998568, 5.660883, 288.832706)"/>
<path fill-rule="nonzero" fill="rgb(29.998779%, 29.998779%, 29.998779%)" fill-opacity="1" stroke-width="0.79701" stroke-linecap="butt" stroke-linejoin="miter" stroke="rgb(0%, 0%, 0%)" stroke-opacity="1" stroke-miterlimit="10" d="M 75.685766 111.120717 L 67.889447 112.677633 L 67.889447 128.270272 L 75.685766 129.827189 Z M 75.685766 111.120717 " transform="matrix(0.998568, 0, 0, -0.998568, 5.660883, 288.832706)"/>
<path fill-rule="nonzero" fill="rgb(100%, 100%, 100%)" fill-opacity="1" stroke-width="0.79701" stroke-linecap="butt" stroke-linejoin="miter" stroke="rgb(0%, 0%, 0%)" stroke-opacity="1" stroke-miterlimit="10" d="M 75.685766 111.120717 L 75.685766 129.827189 L 92.835322 129.827189 L 92.835322 111.120717 Z M 75.685766 111.120717 " transform="matrix(0.998568, 0, 0, -0.998568, 5.660883, 288.832706)"/>
<path fill-rule="nonzero" fill="rgb(100%, 100%, 19.999695%)" fill-opacity="1" d="M 115.488281 179.429688 L 115.488281 174.757812 L 118.601562 174.757812 L 118.601562 179.429688 Z M 115.488281 179.429688 "/>
<path fill-rule="nonzero" fill="rgb(100%, 100%, 19.999695%)" fill-opacity="1" d="M 115.488281 162.304688 L 115.488281 157.632812 L 118.601562 157.632812 L 118.601562 162.304688 Z M 115.488281 162.304688 "/>
<g fill="rgb(0%, 0%, 0%)" fill-opacity="1">
<use xlink:href="#glyph-1-0" x="71.345699" y="192.19627"/>
</g>
<g fill="rgb(0%, 0%, 0%)" fill-opacity="1">
<use xlink:href="#glyph-1-1" x="77.340848" y="192.19627"/>
<use xlink:href="#glyph-1-2" x="81.466211" y="192.19627"/>
<use xlink:href="#glyph-1-3" x="83.994773" y="192.19627"/>
<use xlink:href="#glyph-1-4" x="88.007323" y="192.19627"/>
<use xlink:href="#glyph-1-5" x="93.009431" y="192.19627"/>
<use xlink:href="#glyph-1-6" x="95.537992" y="192.19627"/>
</g>
<g fill="rgb(0%, 0%, 0%)" fill-opacity="1">
<use xlink:href="#glyph-1-7" x="103.074232" y="192.19627"/>
</g>
<path fill="none" stroke-width="0.3985" stroke-linecap="butt" stroke-linejoin="miter" stroke="rgb(50%, 50%, 50%)" stroke-opacity="1" stroke-miterlimit="10" d="M 219.688828 42.518585 C 219.688828 58.177725 206.994871 70.867769 191.339643 70.867769 C 175.684415 70.867769 162.99437 58.177725 162.99437 42.518585 C 162.99437 26.863357 175.684415 14.173312 191.339643 14.173312 C 206.994871 14.173312 219.688828 26.863357 219.688828 42.518585 Z M 219.688828 42.518585 " transform="matrix(0.998568, 0, 0, -0.998568, 5.660883, 288.832706)"/>
<g clip-path="url(#clip-8)">
<path fill="none" stroke-width="0.3985" stroke-linecap="butt" stroke-linejoin="miter" stroke="rgb(50%, 50%, 50%)" stroke-opacity="1" stroke-miterlimit="10" d="M 248.0341 42.518585 C 248.0341 73.832952 222.654011 99.213042 191.339643 99.213042 C 160.029187 99.213042 134.649098 73.832952 134.649098 42.518585 C 134.649098 11.208129 160.029187 -14.171961 191.339643 -14.171961 C 222.654011 -14.171961 248.0341 11.208129 248.0341 42.518585 Z M 248.0341 42.518585 " transform="matrix(0.998568, 0, 0, -0.998568, 5.660883, 288.832706)"/>
</g>
<g clip-path="url(#clip-9)">
<path fill="none" stroke-width="0.3985" stroke-linecap="butt" stroke-linejoin="miter" stroke="rgb(50%, 50%, 50%)" stroke-opacity="1" stroke-miterlimit="10" d="M 276.383285 42.518585 C 276.383285 89.48818 238.309239 127.562227 191.339643 127.562227 C 144.373959 127.562227 106.299913 89.48818 106.299913 42.518585 C 106.299913 -4.447099 144.373959 -42.521145 191.339643 -42.521145 C 238.309239 -42.521145 276.383285 -4.447099 276.383285 42.518585 Z M 276.383285 42.518585 " transform="matrix(0.998568, 0, 0, -0.998568, 5.660883, 288.832706)"/>
</g>
<path fill-rule="nonzero" fill="rgb(69.999695%, 69.999695%, 100%)" fill-opacity="1" d="M 182.714844 273.964844 L 182.714844 218.78125 C 182.714844 217.683594 183.605469 216.792969 184.707031 216.792969 L 205.636719 216.792969 C 206.734375 216.792969 207.625 217.683594 207.625 218.78125 L 207.625 273.964844 C 207.625 275.0625 206.734375 275.953125 205.636719 275.953125 L 184.707031 275.953125 C 183.605469 275.953125 182.714844 275.0625 182.714844 273.964844 Z M 182.714844 273.964844 "/>
<path fill-rule="nonzero" fill="rgb(100%, 100%, 100%)" fill-opacity="1" stroke-width="0.79701" stroke-linecap="butt" stroke-linejoin="miter" stroke="rgb(0%, 0%, 0%)" stroke-opacity="1" stroke-miterlimit="10" d="M 178.868662 16.450009 L 178.868662 68.591072 C 178.868662 69.690302 179.760564 70.582204 180.859794 70.582204 L 201.819492 70.582204 C 202.922634 70.582204 203.814536 69.690302 203.814536 68.591072 L 203.814536 16.450009 C 203.814536 15.346867 202.922634 14.454965 201.819492 14.454965 L 180.859794 14.454965 C 179.760564 14.454965 178.868662 15.346867 178.868662 16.450009 Z M 178.868662 16.450009 " transform="matrix(0.998568, 0, 0, -0.998568, 5.660883, 288.832706)"/>
<path fill-rule="nonzero" fill="rgb(29.998779%, 29.998779%, 29.998779%)" fill-opacity="1" stroke-width="0.79701" stroke-linecap="butt" stroke-linejoin="miter" stroke="rgb(0%, 0%, 0%)" stroke-opacity="1" stroke-miterlimit="10" d="M 181.986407 50.314904 L 183.547236 58.111223 L 199.135962 58.111223 L 200.696791 50.314904 Z M 181.986407 50.314904 " transform="matrix(0.998568, 0, 0, -0.998568, 5.660883, 288.832706)"/>
<path fill-rule="nonzero" fill="rgb(29.998779%, 29.998779%, 29.998779%)" fill-opacity="1" stroke-width="0.79701" stroke-linecap="butt" stroke-linejoin="miter" stroke="rgb(0%, 0%, 0%)" stroke-opacity="1" stroke-miterlimit="10" d="M 181.986407 33.165349 L 183.547236 25.36903 L 199.135962 25.36903 L 200.696791 33.165349 Z M 181.986407 33.165349 " transform="matrix(0.998568, 0, 0, -0.998568, 5.660883, 288.832706)"/>
<path fill-rule="nonzero" fill="rgb(100%, 100%, 100%)" fill-opacity="1" stroke-width="0.79701" stroke-linecap="butt" stroke-linejoin="miter" stroke="rgb(0%, 0%, 0%)" stroke-opacity="1" stroke-miterlimit="10" d="M 181.986407 33.165349 L 181.986407 50.314904 L 200.696791 50.314904 L 200.696791 33.165349 Z M 181.986407 33.165349 " transform="matrix(0.998568, 0, 0, -0.998568, 5.660883, 288.832706)"/>
<path fill-rule="nonzero" fill="rgb(100%, 100%, 19.999695%)" fill-opacity="1" d="M 185.828125 221.464844 L 185.828125 218.351562 L 190.5 218.351562 L 190.5 221.464844 Z M 185.828125 221.464844 "/>
<path fill-rule="nonzero" fill="rgb(100%, 100%, 19.999695%)" fill-opacity="1" d="M 202.957031 221.464844 L 202.957031 218.351562 L 207.625 218.351562 L 207.625 221.464844 Z M 202.957031 221.464844 "/>
<g fill="rgb(0%, 0%, 0%)" fill-opacity="1">
<use xlink:href="#glyph-1-0" x="213.062496" y="248.808096"/>
</g>
<g fill="rgb(0%, 0%, 0%)" fill-opacity="1">
<use xlink:href="#glyph-1-1" x="219.057644" y="248.808096"/>
<use xlink:href="#glyph-1-2" x="223.183008" y="248.808096"/>
<use xlink:href="#glyph-1-3" x="225.711569" y="248.808096"/>
<use xlink:href="#glyph-1-4" x="229.724119" y="248.808096"/>
<use xlink:href="#glyph-1-5" x="234.726227" y="248.808096"/>
<use xlink:href="#glyph-1-6" x="237.254788" y="248.808096"/>
</g>
<g fill="rgb(0%, 0%, 0%)" fill-opacity="1">
<use xlink:href="#glyph-1-8" x="244.791029" y="248.808096"/>
</g>
<path fill-rule="nonzero" fill="rgb(59.999084%, 59.999084%, 59.999084%)" fill-opacity="1" stroke-width="0.79701" stroke-linecap="butt" stroke-linejoin="miter" stroke="rgb(0%, 0%, 0%)" stroke-opacity="1" stroke-miterlimit="10" d="M 113.388187 198.429321 L 113.388187 209.765865 L 124.724731 209.765865 L 124.724731 198.429321 Z M 113.388187 198.429321 " transform="matrix(0.998568, 0, 0, -0.998568, 5.660883, 288.832706)"/>
<path fill-rule="nonzero" fill="rgb(59.999084%, 100%, 59.999084%)" fill-opacity="1" stroke-width="0.79701" stroke-linecap="butt" stroke-linejoin="miter" stroke="rgb(0%, 0%, 0%)" stroke-opacity="1" stroke-miterlimit="10" d="M 116.220367 201.261501 L 116.220367 206.933685 L 121.892551 206.933685 L 121.892551 201.261501 Z M 116.220367 201.261501 " transform="matrix(0.998568, 0, 0, -0.998568, 5.660883, 288.832706)"/>
<path fill-rule="nonzero" fill="rgb(100%, 100%, 100%)" fill-opacity="1" d="M 111.960938 91.25 L 74.859375 91.25 C 72.660156 91.25 70.878906 93.03125 70.878906 95.230469 L 70.878906 97.472656 C 70.878906 99.667969 72.660156 101.453125 74.859375 101.453125 L 111.960938 101.453125 C 114.160156 101.453125 115.941406 99.667969 115.941406 97.472656 L 115.941406 95.230469 C 115.941406 93.03125 114.160156 91.25 111.960938 91.25 Z M 111.960938 91.25 "/>
<g fill="rgb(0%, 0%, 0%)" fill-opacity="1">
<use xlink:href="#glyph-1-9" x="72.867517" y="98.109179"/>
<use xlink:href="#glyph-1-10" x="78.747763" y="98.109179"/>
<use xlink:href="#glyph-1-11" x="83.749871" y="98.109179"/>
<use xlink:href="#glyph-1-1" x="88.256852" y="98.109179"/>
</g>
<g fill="rgb(0%, 0%, 0%)" fill-opacity="1">
<use xlink:href="#glyph-1-12" x="95.404511" y="98.109179"/>
<use xlink:href="#glyph-1-13" x="102.089077" y="98.109179"/>
<use xlink:href="#glyph-1-14" x="107.091185" y="98.109179"/>
</g>
<path fill-rule="nonzero" fill="rgb(100%, 89.99939%, 89.99939%)" fill-opacity="1" stroke-width="0.79701" stroke-linecap="butt" stroke-linejoin="miter" stroke="rgb(0%, 0%, 0%)" stroke-opacity="1" stroke-miterlimit="10" d="M 316.734029 166.524263 L 278.546539 166.524263 C 276.348078 166.524263 274.564274 164.736547 274.564274 162.538087 L 274.564274 149.276912 C 274.564274 147.078452 276.348078 145.290736 278.546539 145.290736 L 316.734029 145.290736 C 318.936401 145.290736 320.720205 147.078452 320.720205 149.276912 L 320.720205 162.538087 C 320.720205 164.736547 318.936401 166.524263 316.734029 166.524263 Z M 316.734029 166.524263 " transform="matrix(0.998568, 0, 0, -0.998568, 5.660883, 288.832706)"/>
<g fill="rgb(0%, 0%, 0%)" fill-opacity="1">
<use xlink:href="#glyph-1-15" x="292.081193" y="130.734398"/>
</g>
<g fill="rgb(0%, 0%, 0%)" fill-opacity="1">
<use xlink:href="#glyph-1-6" x="297.584" y="130.734398"/>
<use xlink:href="#glyph-1-16" x="302.090981" y="130.734398"/>
</g>
<g fill="rgb(0%, 0%, 0%)" fill-opacity="1">
<use xlink:href="#glyph-1-16" x="305.820103" y="130.734398"/>
<use xlink:href="#glyph-1-1" x="309.542262" y="130.734398"/>
</g>
<g fill="rgb(0%, 0%, 0%)" fill-opacity="1">
<use xlink:href="#glyph-1-17" x="283.143009" y="138.692987"/>
<use xlink:href="#glyph-1-18" x="286.660432" y="138.692987"/>
<use xlink:href="#glyph-1-19" x="291.167413" y="138.692987"/>
</g>
<g fill="rgb(0%, 0%, 0%)" fill-opacity="1">
<use xlink:href="#glyph-1-11" x="301.233607" y="138.692987"/>
<use xlink:href="#glyph-1-20" x="305.740588" y="138.692987"/>
<use xlink:href="#glyph-1-8" x="312.718331" y="138.692987"/>
<use xlink:href="#glyph-1-21" x="319.083954" y="138.692987"/>
</g>
<g clip-path="url(#clip-10)">
<path fill-rule="nonzero" fill="rgb(94.999695%, 94.999695%, 94.999695%)" fill-opacity="1" d="M 314.804688 40.121094 C 312.609375 36.316406 307.269531 33.234375 302.875 33.234375 C 298.484375 33.234375 293.140625 36.316406 290.945312 40.121094 C 288.09375 37.378906 282.699219 36.042969 278.894531 37.140625 C 275.09375 38.238281 271.234375 42.246094 270.285156 46.085938 C 267.539062 45.136719 263.535156 45.90625 261.339844 47.808594 C 259.144531 49.707031 257.804688 53.566406 258.355469 56.417969 C 256.453125 57.515625 254.910156 60.1875 254.910156 62.382812 C 254.910156 64.578125 256.453125 67.25 258.355469 68.347656 C 257.804688 71.199219 259.140625 75.050781 261.335938 76.953125 C 263.53125 78.855469 267.539062 79.628906 270.285156 78.679688 C 271.234375 82.523438 275.089844 86.527344 278.890625 87.625 C 282.695312 88.722656 288.09375 87.390625 290.945312 84.644531 C 293.140625 88.449219 298.484375 91.53125 302.875 91.53125 C 307.269531 91.53125 312.609375 88.449219 314.804688 84.644531 C 317.660156 87.390625 323.054688 88.722656 326.859375 87.625 C 330.660156 86.527344 334.519531 82.523438 335.46875 78.679688 C 338.210938 79.628906 342.21875 78.859375 344.410156 76.957031 C 346.605469 75.058594 347.949219 71.199219 347.398438 68.347656 C 349.300781 67.25 350.84375 64.578125 350.84375 62.382812 C 350.84375 60.1875 349.300781 57.515625 347.398438 56.417969 C 347.949219 53.566406 346.613281 49.714844 344.417969 47.8125 C 342.222656 45.910156 338.210938 45.136719 335.46875 46.085938 C 334.519531 42.246094 330.664062 38.238281 326.859375 37.140625 C 323.058594 36.042969 317.660156 37.378906 314.804688 40.121094 Z M 314.804688 40.121094 "/>
</g>
<g clip-path="url(#clip-11)">
<path fill="none" stroke-width="0.79701" stroke-linecap="butt" stroke-linejoin="miter" stroke="rgb(0%, 0%, 0%)" stroke-opacity="1" stroke-miterlimit="10" d="M 309.587077 249.068233 C 307.388617 252.878375 302.041116 255.964826 297.640284 255.964826 C 293.243363 255.964826 287.891951 252.878375 285.693491 249.068233 C 282.837839 251.814352 277.435573 253.152205 273.62543 252.052975 C 269.819199 250.953745 265.95429 246.940186 265.00371 243.094836 C 262.253679 244.045416 258.244032 243.274781 256.045571 241.36971 C 253.847111 239.46855 252.505346 235.603641 253.056917 232.74799 C 251.151846 231.64876 249.606665 228.973054 249.606665 226.774593 C 249.606665 224.576133 251.151846 221.900427 253.056917 220.801197 C 252.505346 217.945546 253.843199 214.08846 256.04166 212.183389 C 258.24012 210.278317 262.253679 209.503771 265.00371 210.454351 C 265.95429 206.605089 269.815287 202.595442 273.621518 201.496212 C 277.431661 200.396982 282.837839 201.730923 285.693491 204.480954 C 287.891951 200.670811 293.243363 197.584361 297.640284 197.584361 C 302.041116 197.584361 307.388617 200.670811 309.587077 204.480954 C 312.44664 201.730923 317.848906 200.396982 321.659049 201.496212 C 325.46528 202.595442 329.330189 206.605089 330.280769 210.454351 C 333.026888 209.503771 337.040448 210.274406 339.234996 212.179477 C 341.433456 214.080637 342.779133 217.945546 342.227562 220.801197 C 344.132634 221.900427 345.677815 224.576133 345.677815 226.774593 C 345.677815 228.973054 344.132634 231.64876 342.227562 232.74799 C 342.779133 235.603641 341.44128 239.460726 339.24282 241.365798 C 337.044359 243.270869 333.026888 244.045416 330.280769 243.094836 C 329.330189 246.940186 325.469192 250.953745 321.659049 252.052975 C 317.852818 253.152205 312.44664 251.814352 309.587077 249.068233 Z M 309.587077 249.068233 " transform="matrix(0.998568, 0, 0, -0.998568, 5.660883, 288.832706)"/>
</g>
<g fill="rgb(0%, 0%, 0%)" fill-opacity="1">
<use xlink:href="#glyph-1-22" x="273.5947" y="64.126905"/>
<use xlink:href="#glyph-1-6" x="280.080101" y="64.126905"/>
<use xlink:href="#glyph-1-16" x="284.587082" y="64.126905"/>
<use xlink:href="#glyph-1-1" x="288.309241" y="64.126905"/>
</g>
<g fill="rgb(0%, 0%, 0%)" fill-opacity="1">
<use xlink:href="#glyph-1-18" x="295.456901" y="64.126905"/>
<use xlink:href="#glyph-1-19" x="299.963882" y="64.126905"/>
</g>
<g fill="rgb(0%, 0%, 0%)" fill-opacity="1">
<use xlink:href="#glyph-1-23" x="310.030076" y="64.126905"/>
</g>
<g fill="rgb(0%, 0%, 0%)" fill-opacity="1">
<use xlink:href="#glyph-1-24" x="317.559352" y="64.126905"/>
<use xlink:href="#glyph-1-15" x="320.897805" y="64.126905"/>
<use xlink:href="#glyph-1-13" x="327.14574" y="64.126905"/>
</g>
<path fill="none" stroke-width="0.79701" stroke-linecap="butt" stroke-linejoin="miter" stroke="rgb(0%, 0%, 0%)" stroke-opacity="1" stroke-miterlimit="10" d="M 297.640284 166.91936 L 297.640284 197.185352 " transform="matrix(0.998568, 0, 0, -0.998568, 5.660883, 288.832706)"/>
<path fill-rule="nonzero" fill="rgb(0%, 0%, 100%)" fill-opacity="1" stroke-width="0.3985" stroke-linecap="butt" stroke-linejoin="miter" stroke="rgb(0%, 0%, 0%)" stroke-opacity="1" stroke-miterlimit="10" d="M 174.330915 197.009319 C 174.330915 199.360341 172.429755 201.261501 170.082644 201.261501 C 167.731622 201.261501 165.830462 199.360341 165.830462 197.009319 C 165.830462 194.662208 167.731622 192.757137 170.082644 192.757137 C 172.429755 192.757137 174.330915 194.662208 174.330915 197.009319 Z M 174.330915 197.009319 " transform="matrix(0.998568, 0, 0, -0.998568, 5.660883, 288.832706)"/>
<path fill-rule="nonzero" fill="rgb(100%, 94.999695%, 94.999695%)" fill-opacity="1" stroke-width="0.3985" stroke-linecap="butt" stroke-linejoin="miter" stroke="rgb(0%, 0%, 0%)" stroke-opacity="1" stroke-miterlimit="10" d="M 172.347606 197.009319 C 172.347606 198.261111 171.334437 199.278192 170.082644 199.278192 C 168.82694 199.278192 167.813771 198.261111 167.813771 197.009319 C 167.813771 195.757526 168.82694 194.744357 170.082644 194.744357 C 171.334437 194.744357 172.347606 195.757526 172.347606 197.009319 Z M 172.347606 197.009319 " transform="matrix(0.998568, 0, 0, -0.998568, 5.660883, 288.832706)"/>
<path fill-rule="nonzero" fill="rgb(100%, 100%, 100%)" fill-opacity="1" d="M 201.859375 72.113281 L 171.78125 72.113281 C 169.585938 72.113281 167.800781 73.894531 167.800781 76.089844 L 167.800781 76.980469 C 167.800781 79.179688 169.585938 80.960938 171.78125 80.960938 L 201.859375 80.960938 C 204.058594 80.960938 205.839844 79.179688 205.839844 76.980469 L 205.839844 76.089844 C 205.839844 73.894531 204.058594 72.113281 201.859375 72.113281 Z M 201.859375 72.113281 "/>
<g fill="rgb(0%, 0%, 0%)" fill-opacity="1">
<use xlink:href="#glyph-1-25" x="169.790542" y="78.972618"/>
</g>
<g fill="rgb(0%, 0%, 0%)" fill-opacity="1">
<use xlink:href="#glyph-1-1" x="175.658253" y="78.972618"/>
<use xlink:href="#glyph-1-10" x="179.783616" y="78.972618"/>
<use xlink:href="#glyph-1-1" x="184.785725" y="78.972618"/>
<use xlink:href="#glyph-1-26" x="188.911088" y="78.972618"/>
<use xlink:href="#glyph-1-27" x="192.478651" y="78.972618"/>
<use xlink:href="#glyph-1-16" x="195.996074" y="78.972618"/>
<use xlink:href="#glyph-1-1" x="199.718233" y="78.972618"/>
</g>
<path fill="none" stroke-width="1.49442" stroke-linecap="butt" stroke-linejoin="miter" stroke="rgb(0%, 0%, 100%)" stroke-opacity="1" stroke-dasharray="2.98883 2.98883" stroke-miterlimit="10" d="M 108.959972 112.560278 L 183.011312 63.192718 " transform="matrix(0.998568, 0, 0, -0.998568, 5.660883, 288.832706)"/>
<path fill="none" stroke-width="1.49442" stroke-linecap="round" stroke-linejoin="round" stroke="rgb(0%, 0%, 100%)" stroke-opacity="1" stroke-miterlimit="10" d="M -3.38585 4.369518 C -2.767423 1.749243 -1.390571 0.509079 0.000391883 0.00237379 C -1.38841 -0.509734 -2.767452 -1.74879 -3.388093 -4.372309 " transform="matrix(-0.830829, -0.553876, -0.553876, 0.830829, 113.84539, 176.021682)"/>
<path fill="none" stroke-width="1.49442" stroke-linecap="round" stroke-linejoin="round" stroke="rgb(0%, 0%, 100%)" stroke-opacity="1" stroke-miterlimit="10" d="M -3.388207 4.371403 C -2.767611 1.747873 -1.387504 0.509879 0.000204325 0.00100324 C -1.388597 -0.511104 -2.76981 -1.746905 -3.385025 -4.37151 " transform="matrix(0.830829, 0.553876, 0.553876, -0.830829, 189.030525, 226.145252)"/>
<path fill-rule="nonzero" fill="rgb(100%, 100%, 100%)" fill-opacity="1" d="M 163.355469 197.015625 L 150.609375 188.519531 C 148.78125 187.300781 146.308594 187.796875 145.089844 189.625 L 144.925781 189.867188 C 143.707031 191.695312 144.203125 194.167969 146.03125 195.386719 L 158.777344 203.882812 C 160.605469 205.101562 163.074219 204.609375 164.292969 202.78125 L 164.457031 202.535156 C 165.675781 200.707031 165.183594 198.234375 163.355469 197.015625 Z M 163.355469 197.015625 "/>
<g fill="rgb(0%, 0%, 100%)" fill-opacity="1">
<use xlink:href="#glyph-2-0" x="144.098381" y="192.904255"/>
<use xlink:href="#glyph-2-1" x="150.750078" y="197.338639"/>
<use xlink:href="#glyph-2-0" x="155.157972" y="200.277182"/>
</g>
<path fill="none" stroke-width="1.49442" stroke-linecap="butt" stroke-linejoin="miter" stroke="rgb(0%, 50%, 0%)" stroke-opacity="1" stroke-dasharray="2.98883 2.98883" stroke-miterlimit="10" d="M 91.329259 137.424003 L 118.438387 197.067996 " transform="matrix(0.998568, 0, 0, -0.998568, 5.660883, 288.832706)"/>
<path fill="none" stroke-width="1.49442" stroke-linecap="round" stroke-linejoin="round" stroke="rgb(0%, 50%, 0%)" stroke-opacity="1" stroke-miterlimit="10" d="M -3.386019 4.371154 C -2.768934 1.746685 -1.38969 0.508586 0.000890859 0.00187985 C -1.390668 -0.510312 -2.770576 -1.747745 -3.387696 -4.370263 " transform="matrix(-0.413178, 0.909007, 0.909007, 0.413178, 96.549441, 152.28357)"/>
<path fill="none" stroke-width="1.49442" stroke-linecap="round" stroke-linejoin="round" stroke="rgb(0%, 50%, 0%)" stroke-opacity="1" stroke-miterlimit="10" d="M -3.385798 4.369677 C -2.770332 1.748769 -1.391088 0.510671 0.00111139 0.000403065 C -1.390448 -0.511789 -2.766794 -1.747603 -3.387475 -4.37174 " transform="matrix(0.413178, -0.909007, -0.909007, -0.413178, 124.238188, 91.368364)"/>
<path fill-rule="nonzero" fill="rgb(100%, 100%, 100%)" fill-opacity="1" d="M 103.679688 117.699219 L 92.359375 117.699219 C 90.160156 117.699219 88.378906 119.480469 88.378906 121.679688 L 88.378906 121.972656 C 88.378906 124.171875 90.160156 125.953125 92.359375 125.953125 L 103.679688 125.953125 C 105.875 125.953125 107.65625 124.171875 107.65625 121.972656 L 107.65625 121.679688 C 107.65625 119.480469 105.875 117.699219 103.679688 117.699219 Z M 103.679688 117.699219 "/>
<g fill="rgb(0%, 50%, 0%)" fill-opacity="1">
<use xlink:href="#glyph-3-0" x="89.373849" y="124.959679"/>
<use xlink:href="#glyph-3-1" x="97.368485" y="124.959679"/>
<use xlink:href="#glyph-3-2" x="102.666307" y="124.959679"/>
</g>
<path fill="none" stroke-width="1.49442" stroke-linecap="butt" stroke-linejoin="miter" stroke="rgb(75%, 0%, 25%)" stroke-opacity="1" stroke-dasharray="2.98883 2.98883" stroke-miterlimit="10" d="M 205.093711 57.806099 L 276.801853 137.787805 " transform="matrix(0.998568, 0, 0, -0.998568, 5.660883, 288.832706)"/>
<path fill="none" stroke-width="1.49442" stroke-linecap="round" stroke-linejoin="round" stroke="rgb(75%, 0%, 25%)" stroke-opacity="1" stroke-miterlimit="10" d="M -3.389365 4.371116 C -2.76768 1.749727 -1.389104 0.511022 -0.0013034 0.000411324 C -1.389283 -0.508452 -2.767302 -1.749226 -3.386663 -4.369437 " transform="matrix(-0.666574, 0.743454, 0.743454, 0.666574, 209.963669, 231.664757)"/>
<path fill="none" stroke-width="1.49442" stroke-linecap="round" stroke-linejoin="round" stroke="rgb(75%, 0%, 25%)" stroke-opacity="1" stroke-miterlimit="10" d="M -3.388639 4.37199 C -2.769866 1.747989 -1.39129 0.509284 -0.000576843 0.00128499 C -1.391469 -0.51019 -2.766576 -1.748352 -3.388849 -4.371175 " transform="matrix(0.666574, -0.743454, -0.743454, -0.666574, 282.56384, 150.687928)"/>
<path fill-rule="nonzero" fill="rgb(100%, 100%, 100%)" fill-opacity="1" d="M 254.0625 193.914062 L 238.464844 193.914062 C 236.265625 193.914062 234.484375 195.695312 234.484375 197.890625 L 234.484375 198.1875 C 234.484375 200.382812 236.265625 202.164062 238.464844 202.164062 L 254.0625 202.164062 C 256.261719 202.164062 258.042969 200.382812 258.042969 198.1875 L 258.042969 197.890625 C 258.042969 195.695312 256.261719 193.914062 254.0625 193.914062 Z M 254.0625 193.914062 "/>
<g fill="rgb(75%, 0%, 25%)" fill-opacity="1">
<use xlink:href="#glyph-3-0" x="235.476357" y="201.171401"/>
<use xlink:href="#glyph-3-1" x="243.470993" y="201.171401"/>
<use xlink:href="#glyph-3-3" x="248.768815" y="201.171401"/>
</g>
<path fill="none" stroke-width="1.49442" stroke-linecap="butt" stroke-linejoin="miter" stroke="rgb(100%, 50%, 0%)" stroke-opacity="1" stroke-dasharray="2.98883 2.98883" stroke-miterlimit="10" d="M 108.721349 131.501461 L 163.405115 191.653995 " transform="matrix(0.998568, 0, 0, -0.998568, 5.660883, 288.832706)"/>
<path fill="none" stroke-width="1.49442" stroke-linecap="round" stroke-linejoin="round" stroke="rgb(100%, 50%, 0%)" stroke-opacity="1" stroke-miterlimit="10" d="M -3.387746 4.369721 C -2.770382 1.74819 -1.38935 0.508216 -0.00121593 -0.000981401 C -1.388032 -0.510976 -2.768004 -1.749642 -3.388512 -4.370386 " transform="matrix(-0.671677, 0.738841, 0.738841, 0.671677, 113.726471, 158.07187)"/>
<path fill="none" stroke-width="1.49442" stroke-linecap="round" stroke-linejoin="round" stroke="rgb(100%, 50%, 0%)" stroke-opacity="1" stroke-miterlimit="10" d="M -3.385976 4.37016 C -2.768612 1.74863 -1.390212 0.511551 0.000553989 -0.000541685 C -1.388893 -0.507642 -2.768865 -1.746307 -3.386742 -4.369946 " transform="matrix(0.671677, -0.738841, -0.738841, -0.671677, 169.335165, 96.902389)"/>
<path fill-rule="nonzero" fill="rgb(100%, 100%, 100%)" fill-opacity="1" d="M 138.296875 114.710938 L 128.503906 125.480469 C 127.027344 127.105469 127.144531 129.625 128.773438 131.101562 L 128.988281 131.300781 C 130.617188 132.777344 133.132812 132.660156 134.609375 131.03125 L 144.402344 120.261719 C 145.882812 118.636719 145.761719 116.117188 144.136719 114.640625 L 143.917969 114.441406 C 142.289062 112.964844 139.773438 113.082031 138.296875 114.710938 Z M 138.296875 114.710938 "/>
<g fill="rgb(100%, 50%, 0%)" fill-opacity="1">
<use xlink:href="#glyph-4-0" x="131.865921" y="132.573761"/>
<use xlink:href="#glyph-4-1" x="137.243433" y="126.65853"/>
<use xlink:href="#glyph-4-2" x="140.80696" y="122.738672"/>
</g>
<g clip-path="url(#clip-12)">
<path fill="none" stroke-width="0.79701" stroke-linecap="butt" stroke-linejoin="miter" stroke="rgb(0%, 0%, 0%)" stroke-opacity="1" stroke-miterlimit="10" d="M -0.000727815 0.000675581 L -0.000727815 283.469051 L 340.162105 283.469051 L 340.162105 0.000675581 Z M -0.000727815 0.000675581 " transform="matrix(0.998568, 0, 0, -0.998568, 5.660883, 288.832706)"/>
</g>
</svg>
